<svg width="16" height="16" viewBox="0 0 16 16" fill="currentColor" xmlns="http://www.w3.org/2000/svg">
    <path fill-rule="evenodd" clip-rule="evenodd" d="M3.01301 0.5H7.63313L9.65198 3.99261H13.6899L15.9999 8.00038L13.6895 11.9973H12V10.9879H13.1071L14.8344 7.99965L13.1067 5.00203H9.65238L7.92465 7.99964L9.08093 10H7.91489L7.05056 8.50472H3.59545L2.73113 10H1.5652L2.72148 7.99964L0.702637 4.49694L3.01301 0.5ZM4.83216 9.8863L4.76695 10H3.60325L3.95656 9.38406L4.83216 9.8863ZM7.05069 1.50942L8.77794 4.49757L7.05015 7.49528H3.59587L1.86814 4.49767L3.59545 1.50942H7.05069ZM3.95709 2.39793L2.81644 4.37639L3.69094 4.88056L4.83158 2.9021L3.95709 2.39793ZM10.0134 5.89053L8.87274 7.86899L9.74723 8.37317L10.8879 6.3947L10.0134 5.89053ZM1 11C0.447715 11 0 11.4477 0 12V13C0 13.5523 0.447715 14 1 14H2V15H0.5H0V16H0.5H2C2.55228 16 3 15.5523 3 15V14C3 13.4477 2.55228 13 2 13H1V12H2.5H3V11H2.5H1ZM4.5 11H4V11.5V15.5V16H4.5H6C6.55228 16 7 15.5523 7 15V12C7 11.4477 6.55228 11 6 11H4.5ZM5 15V12H6V15H5ZM8.5 11H8V11.5V13V14V15.5V16H9V15.5V14H10.5H11V13H10.5H9V12H10.5H11V11H10.5H8.5Z"/>
</svg>
