<svg width="16" height="16" viewBox="0 0 16 16" fill="currentColor" xmlns="http://www.w3.org/2000/svg">
	<path d="M15 9.00002V8.00002H12V13H13V11H14.5V10H13V9.00002H15Z"/>
	<path d="M9.5 13H7.5V8.00002H9.5C9.89769 8.00046 10.279 8.15863 10.5602 8.43984C10.8414 8.72105 10.9996 9.10233 11 9.50002V11.5C10.9996 11.8977 10.8414 12.279 10.5602 12.5602C10.279 12.8414 9.89769 12.9996 9.5 13ZM8.5 12H9.5C9.63256 11.9999 9.75966 11.9471 9.85339 11.8534C9.94713 11.7597 9.99985 11.6326 10 11.5V9.50002C9.99985 9.36746 9.94713 9.24036 9.85339 9.14663C9.75966 9.05289 9.63256 9.00016 9.5 9.00002H8.5V12Z"/>
	<path d="M5.5 8.00002H3V13H4V11.5H5.5C5.76511 11.4997 6.01925 11.3942 6.20671 11.2067C6.39417 11.0193 6.49964 10.7651 6.5 10.5V9.00002C6.4997 8.7349 6.39424 8.48072 6.20677 8.29325C6.0193 8.10578 5.76512 8.00032 5.5 8.00002ZM4 10.5V9.00002H5.5L5.5005 10.5H4Z"/>
	<path d="M11 7.00002V5.00002C11.0018 4.9343 10.9893 4.86898 10.9634 4.80856C10.9375 4.74813 10.8988 4.69404 10.85 4.65002L7.35 1.15002C7.30599 1.10118 7.2519 1.06248 7.19147 1.03658C7.13105 1.01069 7.06572 0.998211 7 1.00002H2C1.73502 1.0008 1.48112 1.1064 1.29375 1.29377C1.10638 1.48114 1.00078 1.73504 1 2.00002V14C1 14.2652 1.10536 14.5196 1.29289 14.7071C1.48043 14.8947 1.73478 15 2 15H10V14H2V2.00002H6V5.00002C6.00078 5.265 6.10639 5.5189 6.29375 5.70627C6.48112 5.89363 6.73502 5.99924 7 6.00002H10V7.00002H11ZM7 5.00002V2.20002L9.8 5.00002H7Z"/>
</svg>
