<svg width="16" height="16" viewBox="0 0 16 16" fill="currentColor" xmlns="http://www.w3.org/2000/svg">
    <path d="M13 2.00499H3C2.73478 2.00499 2.48043 2.11035 2.29289 2.29788C2.10536 2.48542 2 2.73977 2 3.00499V13.005C2 13.2702 2.10536 13.5246 2.29289 13.7121C2.48043 13.8996 2.73478 14.005 3 14.005H13C13.2652 14.005 13.5196 13.8996 13.7071 13.7121C13.8946 13.5246 14 13.2702 14 13.005V3.00499C14 2.73977 13.8946 2.48542 13.7071 2.29788C13.5196 2.11035 13.2652 2.00499 13 2.00499ZM13 3.00499V5.00499H3V3.00499H13ZM3 13.005V6.00499H13V13.005H3Z"/>
    <path d="M5.38 8.08999L6.79 9.50499L5.38 10.92L6.085 11.625L8.205 9.50499L6.085 7.38499L5.38 8.08999Z"/>
</svg>
