<svg width="16" height="16" viewBox="0 0 16 16"  fill="currentColor" xmlns="http://www.w3.org/2000/svg">
	<path d="M7.99998 1.00001C7.07913 0.994302 6.16631 1.17146 5.31446 1.52123C4.4626 1.87099 3.68866 2.38639 3.03751 3.03754C2.38636 3.68869 1.87096 4.46263 1.5212 5.31449C1.17143 6.16634 0.994272 7.07916 0.999981 8.00001C0.994272 8.92086 1.17143 9.83368 1.5212 10.6855C1.87096 11.5374 2.38636 12.3113 3.03751 12.9625C3.68866 13.6136 4.4626 14.129 5.31446 14.4788C6.16631 14.8286 7.07913 15.0057 7.99998 15C8.92083 15.0057 9.83365 14.8286 10.6855 14.4788C11.5374 14.129 12.3113 13.6136 12.9625 12.9625C13.6136 12.3113 14.129 11.5374 14.4788 10.6855C14.8285 9.83368 15.0057 8.92086 15 8.00001C15.0057 7.07916 14.8285 6.16634 14.4788 5.31449C14.129 4.46263 13.6136 3.68869 12.9625 3.03754C12.3113 2.38639 11.5374 1.87099 10.6855 1.52123C9.83365 1.17146 8.92083 0.994302 7.99998 1.00001ZM10.7224 11.5L4.49998 5.27786L5.27783 4.50001L11.5 10.7224L10.7224 11.5Z"/>
</svg>