<svg width="16" height="16" viewBox="0 0 16 16"  fill="currentColor" xmlns="http://www.w3.org/2000/svg">
	<path d="M5.27772 4.50003L4.50004 5.2777L10.7224 11.5L11.5 10.7224L5.27772 4.50003Z"/>
	<path d="M7.99998 1.00001C7.07913 0.994289 6.16631 1.17144 5.31444 1.5212C4.46258 1.87095 3.68863 2.38635 3.03748 3.03751C2.38632 3.68866 1.87092 4.46261 1.52117 5.31447C1.17141 6.16634 0.994259 7.07916 0.999982 8.00001C0.994259 8.92086 1.17141 9.83369 1.52117 10.6856C1.87092 11.5374 2.38632 12.3114 3.03748 12.9625C3.68863 13.6137 4.46258 14.1291 5.31444 14.4788C6.16631 14.8286 7.07913 15.0057 7.99998 15C8.92083 15.0057 9.83366 14.8286 10.6855 14.4788C11.5374 14.1291 12.3113 13.6137 12.9625 12.9625C13.6136 12.3114 14.129 11.5374 14.4788 10.6856C14.8286 9.83369 15.0057 8.92086 15 8.00001C15.0057 7.07916 14.8286 6.16634 14.4788 5.31447C14.129 4.46261 13.6136 3.68866 12.9625 3.03751C12.3113 2.38635 11.5374 1.87095 10.6855 1.5212C9.83366 1.17144 8.92083 0.994289 7.99998 1.00001ZM7.99998 14C6.81329 14 5.65326 13.6481 4.66656 12.9888C3.67987 12.3295 2.91083 11.3925 2.4567 10.2961C2.00258 9.19976 1.88376 7.99336 2.11527 6.82947C2.34678 5.66558 2.91823 4.59649 3.75734 3.75737C4.59646 2.91826 5.66555 2.34681 6.82944 2.1153C7.99333 1.88379 9.19973 2.00261 10.2961 2.45674C11.3924 2.91086 12.3295 3.6799 12.9888 4.66659C13.6481 5.65329 14 6.81332 14 8.00001C13.9953 9.58988 13.3617 11.1133 12.2375 12.2375C11.1133 13.3617 9.58985 13.9954 7.99998 14Z"/>
</svg>