<svg width="16" height="16" viewBox="0 0 16 16" fill="currentColor" xmlns="http://www.w3.org/2000/svg" overflow="visible" style="overflow: visible">
    <path fill-rule="evenodd" clip-rule="evenodd" d="M3.15946 0H2.87078L2.72644 0.25L0.417043 4.25L0.272705 4.5L0.417043 4.75L2.58211 8.5L0.417043 12.25L0.272705 12.5L0.417043 12.75L2.72644 16.75L2.87078 17H3.15946H5V16H3.44813L1.42741 12.5L3.44813 9H7.48958L8.64428 11H9.80071L8.35734 8.5L10.3781 5H14.4195L16.4402 8.5L14.9969 11H16.1516L17.4506 8.75L17.5949 8.5L17.4506 8.25L15.1412 4.25L14.9969 4H14.7082H10.3763L8.21127 0.25L8.06693 0H7.77826H3.15946ZM7.48958 8H3.44813L1.42741 4.5L3.44813 1L7.48958 1L9.51031 4.5L7.48958 8ZM2.43316 4.75806L4.17451 1.74195L5.04054 2.24195L3.29918 5.25806L2.43316 4.75806ZM2.4332 12.7581L4.17455 9.74195L5.04058 10.242L3.29922 13.2581L2.4332 12.7581ZM9.36313 8.75806L11.1045 5.74195L11.9705 6.24195L10.2292 9.25806L9.36313 8.75806ZM7 12C6.44772 12 6 12.4477 6 13V14C6 14.5523 6.44772 15 7 15H8V16H6.5H6V17H6.5H8C8.55228 17 9 16.5523 9 16V15C9 14.4477 8.55228 14 8 14H7V13H8.5H9V12H8.5H7ZM10.5 12H10V12.5V16.5V17H10.5H12C12.5523 17 13 16.5523 13 16V13C13 12.4477 12.5523 12 12 12H10.5ZM11 16V13H12V16H11ZM14.5 12H14V12.5V14V15V16.5V17H15V16.5V15H16.5H17V14H16.5H15V13H16.5H17V12H16.5H14.5Z"/>
</svg>