<svg width="16" height="16" viewBox="0 0 16 16" fill="currentColor" xmlns="http://www.w3.org/2000/svg" overflow="visible" style="overflow: visible">
    <path fill-rule="evenodd" clip-rule="evenodd" d="M3.15946 0H2.87078L2.72644 0.25L0.417043 4.25L0.272705 4.5L0.417043 4.75L2.58211 8.5L0.417043 12.25L0.272705 12.5L0.417043 12.75L2.72644 16.75L2.87078 17H3.15946H5V16H3.44813L1.42741 12.5L3.44813 9H7.48958L8.64428 11H9.80071L8.35734 8.5L10.3781 5H14.4195L16.4402 8.5L14.9969 11H16.1516L17.4506 8.75L17.5949 8.5L17.4506 8.25L15.1412 4.25L14.9969 4H14.7082H10.3763L8.21127 0.25L8.06693 0H7.77826H3.15946ZM7.48958 8H3.44813L1.42741 4.5L3.44813 1L7.48958 1L9.51031 4.5L7.48958 8ZM2.43316 4.75806L4.17451 1.74195L5.04054 2.24195L3.29918 5.25806L2.43316 4.75806ZM2.4332 12.7581L4.17455 9.74195L5.04058 10.242L3.29922 13.2581L2.4332 12.7581ZM9.36313 8.75806L11.1045 5.74195L11.9705 6.24195L10.2292 9.25806L9.36313 8.75806ZM7 12C6.44772 12 6 12.4477 6 13V16C6 16.5523 6.44772 17 7 17H8.5H9V16H8.5H7V13H8.5H9V12H8.5H7ZM11 12C10.4477 12 10 12.4477 10 13V14C10 14.5523 10.4477 15 11 15H12V16H10.5H10V17H10.5H12C12.5523 17 13 16.5523 13 16V15C13 14.4477 12.5523 14 12 14H11V13H12.5H13V12H12.5H11ZM14 12H15V12.5V14.396L15.5 15.546L16 14.396V12.5V12H17V12.5V14.5V14.604L16.9585 14.6994L15.9585 16.9994H15.0415L14.0415 14.6994L14 14.604V14.5V12.5V12Z"/>
</svg>