<svg width="16" height="16" viewBox="0 0 16 16" fill="currentColor" xmlns="http://www.w3.org/2000/svg">
    <path fill-rule="evenodd" clip-rule="evenodd" d="M6.5 2C6.22386 2 6 2.22386 6 2.5V3V4H10V3V2.5C10 2.22386 9.77614 2 9.5 2H6.5ZM6.5 1C5.84689 1 5.29127 1.4174 5.08535 2H2.5H2V2.5V14.5V15H2.5H13.5H14V14.5V2.5V2H13.5H10.9146C10.7087 1.4174 10.1531 1 9.5 1H6.5ZM3 3H5V4.5V5H5.5H10.5H11V4.5V3H13V14H3V3ZM5.5 9H5V10H5.5H10.5H11V9H10.5H5.5ZM5 7H5.5H10.5H11V8H10.5H5.5H5V7ZM5.5 11H5V12H5.5H10.5H11V11H10.5H5.5Z"/>
</svg>
