<svg width="16" height="16" viewBox="0 0 16 16" fill="currentColor" xmlns="http://www.w3.org/2000/svg">
    <path d="M8.00002 1C6.67394 1 5.40217 1.52678 4.46449 2.46447C3.52681 3.40215 3.00002 4.67392 3.00002 6C2.96621 6.72667 3.10541 7.45098 3.40617 8.11335C3.70693 8.77572 4.16066 9.35722 4.73002 9.81C5.23002 10.275 5.50002 10.54 5.50002 11H10.5C10.5 10.54 10.765 10.275 11.27 9.805C11.839 9.35299 12.2925 8.77235 12.5933 8.11085C12.894 7.44935 13.0334 6.72589 13 6C13 5.34339 12.8707 4.69321 12.6194 4.08658C12.3681 3.47995 11.9998 2.92876 11.5356 2.46447C11.0713 2.00017 10.5201 1.63188 9.91344 1.3806C9.30681 1.12933 8.65663 1 8.00002 1Z"/>
    <path d="M5.5 12H10.5V13H5.5V12Z"/>
    <path d="M6.5 14H9.5V15H6.5V14Z"/>
</svg>