<svg width="16" height="16" viewBox="0 0 16 16" fill="currentColor" xmlns="http://www.w3.org/2000/svg">
    <path fill-rule="evenodd" clip-rule="evenodd" d="M4 3.5C4 1.567 5.567 0 7.5 0H8V1H7.5C6.11929 1 5 2.11929 5 3.5V9V9.5H4.5H4C3.17157 9.5 2.5 10.1716 2.5 11C2.5 11.8284 3.17157 12.5 4 12.5H4.5V12V11.5H5.5V12V12.5C5.5 13.8807 6.61929 15 8 15C9.38071 15 10.5 13.8807 10.5 12.5V12V11.5H11.5V12V12.5H12C12.8284 12.5 13.5 11.8284 13.5 11C13.5 10.1716 12.8284 9.5 12 9.5H11.5H11V9V5H12V8.5C13.3807 8.5 14.5 9.61929 14.5 11C14.5 12.3807 13.3807 13.5 12 13.5H11.3551C10.9248 14.9457 9.58551 16 8 16C6.41449 16 5.07521 14.9457 4.64494 13.5H4C2.61929 13.5 1.5 12.3807 1.5 11C1.5 9.61929 2.61929 8.5 4 8.5V3.5Z"/>
</svg>