<svg width="16" height="15" viewBox="0 0 16 15" fill="currentColor" xmlns="http://www.w3.org/2000/svg">
	<path fill-rule="evenodd" clip-rule="evenodd" d="M7 2C7 1.44772 7.44772 1 8 1C8.55228 1 9 1.44772 9 2C9 2.55228 8.55228 3 8 3C7.44772 3 7 2.55228 7 2ZM6.09398 2.60764C4.65765 2.77685 3.58475 3.12061 2.82807 3.45691C2.48895 3.60763 2.21229 3.75732 1.99402 3.89002C1.99797 3.92614 2 3.96283 2 4C2 4.55228 1.55228 5 1 5C0.447715 5 0 4.55228 0 4C0 3.44772 0.447715 3 1 3C1.14159 3 1.27631 3.02943 1.39837 3.0825C1.66411 2.9163 2.00348 2.72907 2.42193 2.54309C3.28285 2.16046 4.4732 1.78549 6.03852 1.60738C6.22097 0.690811 7.02981 0 8 0C8.97019 0 9.77903 0.690811 9.96148 1.60738C11.5268 1.78549 12.7171 2.16046 13.5781 2.54309C13.9965 2.72907 14.3359 2.9163 14.6016 3.0825C14.7237 3.02943 14.8584 3 15 3C15.5523 3 16 3.44772 16 4C16 4.55228 15.5523 5 15 5C14.4477 5 14 4.55228 14 4C14 3.96283 14.002 3.92614 14.006 3.89002C13.7877 3.75732 13.5111 3.60763 13.1719 3.45691C12.4153 3.12061 11.3424 2.77685 9.90602 2.60764C9.64882 3.41511 8.89272 4 8 4C7.10728 4 6.35118 3.41511 6.09398 2.60764ZM2.5 7.5C1.67157 7.5 1 8.17157 1 9V10C1 10.8284 1.67157 11.5 2.5 11.5H3.5C3.77614 11.5 4 11.7239 4 12V13C4 13.2761 3.77614 13.5 3.5 13.5H1V14.5H3.5C4.32843 14.5 5 13.8284 5 13V12C5 11.1716 4.32843 10.5 3.5 10.5H2.5C2.22386 10.5 2 10.2761 2 10V9C2 8.72385 2.22386 8.5 2.5 8.5H4.5V7.5H2.5ZM12.5 7.5C11.6716 7.5 11 8.17157 11 9V13C11 13.8284 11.6716 14.5 12.5 14.5H14.5H15V14V11V10.5H14.5H13V11.5H14V13.5H12.5C12.2239 13.5 12 13.2761 12 13V9C12 8.72385 12.2239 8.5 12.5 8.5H15V7.5H12.5ZM8 12.4189L6.36038 7.5H5.30629L7.52566 14.1581C7.59372 14.3623 7.78478 14.5 8 14.5C8.21521 14.5 8.40628 14.3623 8.47434 14.1581L10.6937 7.5H9.63962L8 12.4189Z"/>
</svg>
