<svg width="16" height="16" viewBox="0 0 16 16" fill="currentColor" xmlns="http://www.w3.org/2000/svg">
    <path d="M11.5 10C11.1257 10.0019 10.7566 10.0878 10.42 10.2513C10.0834 10.4149 9.78776 10.6519 9.55497 10.945L5.89997 8.66001C6.03318 8.23009 6.03318 7.76993 5.89997 7.34001L9.55497 5.05501C9.92594 5.51437 10.4475 5.8276 11.0273 5.93921C11.6071 6.05083 12.2077 5.95363 12.7227 5.66482C13.2377 5.37602 13.6339 4.91426 13.841 4.36133C14.0482 3.80841 14.0529 3.20002 13.8544 2.64393C13.656 2.08784 13.2671 1.61994 12.7567 1.32313C12.2462 1.02631 11.6472 0.919736 11.0657 1.02228C10.4843 1.12482 9.95785 1.42986 9.57975 1.88337C9.20164 2.33688 8.99626 2.90957 8.99997 3.50001C9.00233 3.7236 9.03599 3.94576 9.09997 4.16001L5.44497 6.44501C5.12229 6.0388 4.68124 5.74303 4.18295 5.59871C3.68465 5.45438 3.1538 5.46864 2.66398 5.63952C2.17415 5.81039 1.74961 6.12941 1.44921 6.55236C1.14881 6.97531 0.987427 7.48124 0.987427 8.00001C0.987427 8.51878 1.14881 9.02471 1.44921 9.44766C1.74961 9.87061 2.17415 10.1896 2.66398 10.3605C3.1538 10.5314 3.68465 10.5456 4.18295 10.4013C4.68124 10.257 5.12229 9.96122 5.44497 9.55501L9.09997 11.84C9.03599 12.0543 9.00233 12.2764 8.99997 12.5C8.99997 12.9945 9.14659 13.4778 9.4213 13.8889C9.696 14.3001 10.0864 14.6205 10.5433 14.8097C11.0001 14.9989 11.5027 15.0484 11.9877 14.952C12.4726 14.8555 12.9181 14.6174 13.2677 14.2678C13.6174 13.9181 13.8555 13.4727 13.9519 12.9877C14.0484 12.5028 13.9989 12.0001 13.8097 11.5433C13.6204 11.0865 13.3 10.696 12.8889 10.4213C12.4778 10.1466 11.9944 10 11.5 10ZM11.5 2.00001C11.7966 2.00001 12.0867 2.08798 12.3333 2.25281C12.58 2.41763 12.7723 2.6519 12.8858 2.92599C12.9993 3.20007 13.029 3.50167 12.9711 3.79265C12.9133 4.08362 12.7704 4.35089 12.5606 4.56067C12.3509 4.77045 12.0836 4.91331 11.7926 4.97119C11.5016 5.02907 11.2 4.99936 10.9259 4.88583C10.6519 4.7723 10.4176 4.58004 10.2528 4.33337C10.0879 4.08669 9.99997 3.79668 9.99997 3.50001C9.99997 3.10219 10.158 2.72065 10.4393 2.43935C10.7206 2.15805 11.1021 2.00001 11.5 2.00001ZM3.49997 9.50001C3.2033 9.50001 2.91329 9.41204 2.66661 9.24722C2.41994 9.08239 2.22768 8.84812 2.11415 8.57404C2.00062 8.29995 1.97091 7.99835 2.02879 7.70738C2.08667 7.4164 2.22953 7.14913 2.43931 6.93935C2.64909 6.72957 2.91636 6.58671 3.20733 6.52883C3.49831 6.47095 3.79991 6.50066 4.074 6.61419C4.34808 6.72772 4.58235 6.91998 4.74717 7.16666C4.912 7.41333 4.99997 7.70334 4.99997 8.00001C4.99997 8.39784 4.84193 8.77937 4.56063 9.06067C4.27933 9.34198 3.89779 9.50001 3.49997 9.50001ZM11.5 14C11.2033 14 10.9133 13.912 10.6666 13.7472C10.4199 13.5824 10.2277 13.3481 10.1142 13.074C10.0006 12.7999 9.97091 12.4983 10.0288 12.2074C10.0867 11.9164 10.2295 11.6491 10.4393 11.4394C10.6491 11.2296 10.9164 11.0867 11.2073 11.0288C11.4983 10.971 11.7999 11.0007 12.074 11.1142C12.3481 11.2277 12.5824 11.42 12.7472 11.6667C12.912 11.9133 13 12.2033 13 12.5C13 12.8978 12.8419 13.2794 12.5606 13.5607C12.2793 13.842 11.8978 14 11.5 14Z"/>
</svg>