<svg width="16" height="16" viewBox="0 0 16 16" fill="currentColor" xmlns="http://www.w3.org/2000/svg">
    <path fill-rule="evenodd" clip-rule="evenodd" d="M3 12H7.71857V15L9.42857 12H13C13.5304 12 14.0391 11.7893 14.4142 11.4142C14.7893 11.0391 15 10.5304 15 10V4C15 3.46957 14.7893 2.96086 14.4142 2.58579C14.0391 2.21071 13.5304 2 13 2H3C2.46957 2 1.96086 2.21071 1.58579 2.58579C1.21071 2.96086 1 3.46957 1 4V10C1 10.5304 1.21071 11.0391 1.58579 11.4142C1.96086 11.7893 2.46957 12 3 12ZM12 5H4V6H12V5ZM4 8H9V9H4V8Z"/>
</svg>
