<svg width="16" height="16" viewBox="0 0 16 16" fill="currentColor" xmlns="http://www.w3.org/2000/svg">
    <path fill-rule="evenodd" clip-rule="evenodd" d="M12.0373 8.5L11.1718 10H12.3263L13.1918 8.5L10.5954 4H5.40472L2.8083 8.5L3.67378 10H4H4.82829L3.96282 8.5L5.98226 5H10.0178L12.0373 8.5ZM14.3463 8.5L13.4808 10H14.6353L15.5008 8.5L11.7504 2H4.24966L0.499268 8.5L4 14.5673V12.5664L1.65378 8.5L4.82719 3H11.1729L14.3463 8.5ZM5 11H5.5H6.5C7.32843 11 8 11.6716 8 12.5C8 13.3284 7.32843 14 6.5 14H6V16H5V11.5V11ZM6 13H6.5C6.77614 13 7 12.7761 7 12.5C7 12.2239 6.77614 12 6.5 12H6V13ZM9.5 11H9V11.5V15.5V16H9.5H11C11.5523 16 12 15.5523 12 15V12C12 11.4477 11.5523 11 11 11H9.5ZM10 15V12H11V15H10ZM14 13H15V12H14V13ZM15.8662 13.5C15.9513 13.3529 16 13.1821 16 13V12C16 11.4477 15.5523 11 15 11H13.5H13V11.5V13V13.5V14V15.5V16H13.5H15C15.5523 16 16 15.5523 16 15V14C16 13.8179 15.9513 13.6471 15.8662 13.5ZM15 14H14V15H15V14Z"/>
</svg>