<svg width="154" height="48" viewBox="0 0 154 48" fill="none" xmlns="http://www.w3.org/2000/svg">
<rect width="154" height="48" fill="#0F62FE"/>
<path d="M20.746 29.168C19.5047 29.168 18.5387 28.748 17.848 27.908C17.1573 27.0587 16.812 25.8127 16.812 24.17C16.812 22.5273 17.1573 21.2673 17.848 20.39C18.5387 19.5033 19.5047 19.06 20.746 19.06C21.5673 19.06 22.2533 19.2467 22.804 19.62C23.364 19.9933 23.798 20.5207 24.106 21.202L23.154 21.776C22.958 21.272 22.6593 20.8707 22.258 20.572C21.8567 20.264 21.3527 20.11 20.746 20.11C20.326 20.11 19.948 20.1893 19.612 20.348C19.2853 20.5067 19.0053 20.7353 18.772 21.034C18.548 21.3233 18.3753 21.6733 18.254 22.084C18.1327 22.4853 18.072 22.938 18.072 23.442V24.898C18.072 25.906 18.3053 26.6947 18.772 27.264C19.2387 27.8333 19.8967 28.118 20.746 28.118C21.3713 28.118 21.894 27.9593 22.314 27.642C22.734 27.3153 23.042 26.886 23.238 26.354L24.176 26.942C23.868 27.6327 23.4247 28.1787 22.846 28.58C22.2673 28.972 21.5673 29.168 20.746 29.168Z" fill="white"/>
<path d="M26.0453 29V21.776H27.1653V23.106H27.2353C27.366 22.7607 27.5993 22.4527 27.9353 22.182C28.2713 21.9113 28.7333 21.776 29.3213 21.776H29.7553V22.896H29.0973C28.4906 22.896 28.0146 23.0127 27.6693 23.246C27.3333 23.47 27.1653 23.7547 27.1653 24.1V29H26.0453Z" fill="white"/>
<path d="M33.9936 29.168C33.4989 29.168 33.0509 29.0793 32.6496 28.902C32.2576 28.7247 31.9169 28.4727 31.6276 28.146C31.3476 27.81 31.1282 27.4133 30.9696 26.956C30.8202 26.4893 30.7456 25.9667 30.7456 25.388C30.7456 24.8187 30.8202 24.3007 30.9696 23.834C31.1282 23.3673 31.3476 22.9707 31.6276 22.644C31.9169 22.308 32.2576 22.0513 32.6496 21.874C33.0509 21.6967 33.4989 21.608 33.9936 21.608C34.4789 21.608 34.9129 21.6967 35.2956 21.874C35.6782 22.0513 36.0049 22.2987 36.2756 22.616C36.5462 22.924 36.7516 23.2927 36.8916 23.722C37.0409 24.1513 37.1156 24.6227 37.1156 25.136V25.668H31.9216V26.004C31.9216 26.312 31.9682 26.6013 32.0616 26.872C32.1642 27.1333 32.3042 27.362 32.4816 27.558C32.6682 27.754 32.8922 27.908 33.1536 28.02C33.4242 28.132 33.7276 28.188 34.0636 28.188C34.5209 28.188 34.9176 28.0807 35.2536 27.866C35.5989 27.6513 35.8649 27.3433 36.0516 26.942L36.8496 27.516C36.6162 28.0107 36.2522 28.412 35.7576 28.72C35.2629 29.0187 34.6749 29.168 33.9936 29.168ZM33.9936 22.546C33.6856 22.546 33.4056 22.602 33.1536 22.714C32.9016 22.8167 32.6822 22.966 32.4956 23.162C32.3182 23.358 32.1782 23.5913 32.0756 23.862C31.9729 24.1233 31.9216 24.4127 31.9216 24.73V24.828H35.9116V24.674C35.9116 24.03 35.7342 23.5167 35.3796 23.134C35.0342 22.742 34.5722 22.546 33.9936 22.546Z" fill="white"/>
<path d="M44.3712 29C43.9512 29 43.6478 28.888 43.4612 28.664C43.2838 28.44 43.1718 28.16 43.1252 27.824H43.0552C42.8965 28.272 42.6352 28.608 42.2712 28.832C41.9072 29.056 41.4732 29.168 40.9692 29.168C40.2038 29.168 39.6065 28.972 39.1772 28.58C38.7572 28.188 38.5472 27.656 38.5472 26.984C38.5472 26.3027 38.7945 25.78 39.2892 25.416C39.7932 25.052 40.5725 24.87 41.6272 24.87H43.0552V24.156C43.0552 23.6427 42.9152 23.2507 42.6352 22.98C42.3552 22.7093 41.9258 22.574 41.3472 22.574C40.9085 22.574 40.5398 22.672 40.2412 22.868C39.9518 23.064 39.7092 23.3253 39.5132 23.652L38.8412 23.022C39.0372 22.63 39.3498 22.2987 39.7792 22.028C40.2085 21.748 40.7498 21.608 41.4032 21.608C42.2805 21.608 42.9618 21.8227 43.4472 22.252C43.9325 22.6813 44.1752 23.2787 44.1752 24.044V28.02H45.0012V29H44.3712ZM41.1512 28.216C41.4312 28.216 41.6878 28.1833 41.9212 28.118C42.1545 28.0527 42.3552 27.9593 42.5232 27.838C42.6912 27.7167 42.8218 27.5767 42.9152 27.418C43.0085 27.2593 43.0552 27.0867 43.0552 26.9V25.71H41.5712C40.9272 25.71 40.4558 25.8033 40.1572 25.99C39.8678 26.1767 39.7232 26.4473 39.7232 26.802V27.096C39.7232 27.4507 39.8492 27.726 40.1012 27.922C40.3625 28.118 40.7125 28.216 41.1512 28.216Z" fill="white"/>
<path d="M48.3557 29C47.9637 29 47.665 28.8927 47.4597 28.678C47.2637 28.454 47.1657 28.1647 47.1657 27.81V22.756H45.9757V21.776H46.6477C46.8904 21.776 47.0537 21.7293 47.1377 21.636C47.231 21.5333 47.2777 21.3607 47.2777 21.118V19.774H48.2857V21.776H49.8677V22.756H48.2857V28.02H49.7557V29H48.3557Z" fill="white"/>
<path d="M54.4892 29.168C53.9945 29.168 53.5465 29.0793 53.1452 28.902C52.7532 28.7247 52.4125 28.4727 52.1232 28.146C51.8432 27.81 51.6239 27.4133 51.4652 26.956C51.3159 26.4893 51.2412 25.9667 51.2412 25.388C51.2412 24.8187 51.3159 24.3007 51.4652 23.834C51.6239 23.3673 51.8432 22.9707 52.1232 22.644C52.4125 22.308 52.7532 22.0513 53.1452 21.874C53.5465 21.6967 53.9945 21.608 54.4892 21.608C54.9745 21.608 55.4085 21.6967 55.7912 21.874C56.1739 22.0513 56.5005 22.2987 56.7712 22.616C57.0419 22.924 57.2472 23.2927 57.3872 23.722C57.5365 24.1513 57.6112 24.6227 57.6112 25.136V25.668H52.4172V26.004C52.4172 26.312 52.4639 26.6013 52.5572 26.872C52.6599 27.1333 52.7999 27.362 52.9772 27.558C53.1639 27.754 53.3879 27.908 53.6492 28.02C53.9199 28.132 54.2232 28.188 54.5592 28.188C55.0165 28.188 55.4132 28.0807 55.7492 27.866C56.0945 27.6513 56.3605 27.3433 56.5472 26.942L57.3452 27.516C57.1119 28.0107 56.7479 28.412 56.2532 28.72C55.7585 29.0187 55.1705 29.168 54.4892 29.168ZM54.4892 22.546C54.1812 22.546 53.9012 22.602 53.6492 22.714C53.3972 22.8167 53.1779 22.966 52.9912 23.162C52.8139 23.358 52.6739 23.5913 52.5712 23.862C52.4685 24.1233 52.4172 24.4127 52.4172 24.73V24.828H56.4072V24.674C56.4072 24.03 56.2299 23.5167 55.8752 23.134C55.5299 22.742 55.0679 22.546 54.4892 22.546Z" fill="white"/>
<path d="M63.0854 18.64H64.2054V22.952H64.2614C64.4481 22.4947 64.7187 22.1587 65.0734 21.944C65.4374 21.72 65.8714 21.608 66.3754 21.608C66.8234 21.608 67.2294 21.6967 67.5934 21.874C67.9574 22.0513 68.2654 22.3033 68.5174 22.63C68.7787 22.9567 68.9747 23.3533 69.1054 23.82C69.2454 24.2867 69.3154 24.8093 69.3154 25.388C69.3154 25.9667 69.2454 26.4893 69.1054 26.956C68.9747 27.4227 68.7787 27.8193 68.5174 28.146C68.2654 28.4727 67.9574 28.7247 67.5934 28.902C67.2294 29.0793 66.8234 29.168 66.3754 29.168C65.3954 29.168 64.6907 28.72 64.2614 27.824H64.2054V29H63.0854V18.64ZM66.0674 28.16C66.7021 28.16 67.2014 27.964 67.5654 27.572C67.9294 27.1707 68.1114 26.648 68.1114 26.004V24.772C68.1114 24.128 67.9294 23.61 67.5654 23.218C67.2014 22.8167 66.7021 22.616 66.0674 22.616C65.8154 22.616 65.5727 22.6533 65.3394 22.728C65.1154 22.7933 64.9194 22.8867 64.7514 23.008C64.5834 23.1293 64.4481 23.2787 64.3454 23.456C64.2521 23.624 64.2054 23.806 64.2054 24.002V26.69C64.2054 26.9233 64.2521 27.1333 64.3454 27.32C64.4481 27.4973 64.5834 27.6513 64.7514 27.782C64.9194 27.9033 65.1154 27.9967 65.3394 28.062C65.5727 28.1273 65.8154 28.16 66.0674 28.16Z" fill="white"/>
<path d="M72.5565 29C72.1645 29 71.8658 28.8927 71.6605 28.678C71.4645 28.454 71.3665 28.174 71.3665 27.838V18.64H72.4865V28.02H73.5505V29H72.5565Z" fill="white"/>
<path d="M78.0709 29.168C77.5856 29.168 77.1423 29.0793 76.7409 28.902C76.3396 28.7247 75.9943 28.4727 75.7049 28.146C75.4249 27.81 75.2056 27.4133 75.0469 26.956C74.8883 26.4893 74.8089 25.9667 74.8089 25.388C74.8089 24.8187 74.8883 24.3007 75.0469 23.834C75.2056 23.3673 75.4249 22.9707 75.7049 22.644C75.9943 22.308 76.3396 22.0513 76.7409 21.874C77.1423 21.6967 77.5856 21.608 78.0709 21.608C78.5563 21.608 78.9949 21.6967 79.3869 21.874C79.7883 22.0513 80.1336 22.308 80.4229 22.644C80.7123 22.9707 80.9363 23.3673 81.0949 23.834C81.2536 24.3007 81.3329 24.8187 81.3329 25.388C81.3329 25.9667 81.2536 26.4893 81.0949 26.956C80.9363 27.4133 80.7123 27.81 80.4229 28.146C80.1336 28.4727 79.7883 28.7247 79.3869 28.902C78.9949 29.0793 78.5563 29.168 78.0709 29.168ZM78.0709 28.174C78.6776 28.174 79.1723 27.9873 79.5549 27.614C79.9376 27.2407 80.1289 26.6713 80.1289 25.906V24.87C80.1289 24.1047 79.9376 23.5353 79.5549 23.162C79.1723 22.7887 78.6776 22.602 78.0709 22.602C77.4643 22.602 76.9696 22.7887 76.5869 23.162C76.2043 23.5353 76.0129 24.1047 76.0129 24.87V25.906C76.0129 26.6713 76.2043 27.2407 76.5869 27.614C76.9696 27.9873 77.4643 28.174 78.0709 28.174Z" fill="white"/>
<path d="M89.4249 29.798C89.4249 30.5447 89.1309 31.0907 88.5429 31.436C87.9642 31.7907 87.0916 31.968 85.9249 31.968C84.7956 31.968 83.9836 31.814 83.4889 31.506C82.9942 31.198 82.7469 30.7593 82.7469 30.19C82.7469 29.798 82.8496 29.49 83.0549 29.266C83.2602 29.0513 83.5403 28.8927 83.8949 28.79V28.636C83.4656 28.4307 83.2509 28.0947 83.2509 27.628C83.2509 27.264 83.3676 26.9887 83.6009 26.802C83.8342 26.606 84.1329 26.4613 84.4969 26.368V26.312C84.0676 26.1067 83.7316 25.8127 83.4889 25.43C83.2556 25.0473 83.1389 24.604 83.1389 24.1C83.1389 23.736 83.2042 23.4 83.3349 23.092C83.4656 22.784 83.6476 22.5227 83.8809 22.308C84.1236 22.084 84.4083 21.9113 84.7349 21.79C85.0709 21.6687 85.4443 21.608 85.8549 21.608C86.3683 21.608 86.8256 21.7013 87.2269 21.888V21.762C87.2269 21.482 87.2923 21.2533 87.4229 21.076C87.5536 20.8893 87.7683 20.796 88.0669 20.796H89.1449V21.776H87.7729V22.238C88.0343 22.462 88.2349 22.7327 88.3749 23.05C88.5242 23.358 88.5989 23.708 88.5989 24.1C88.5989 24.464 88.5336 24.8 88.4029 25.108C88.2722 25.416 88.0856 25.682 87.8429 25.906C87.6096 26.1207 87.3249 26.2887 86.9889 26.41C86.6529 26.5313 86.2796 26.592 85.8689 26.592C85.6356 26.592 85.4022 26.5687 85.1689 26.522C84.9262 26.5873 84.7069 26.6853 84.5109 26.816C84.3149 26.9373 84.2169 27.11 84.2169 27.334C84.2169 27.5487 84.3196 27.6933 84.5249 27.768C84.7303 27.8427 84.9962 27.88 85.3229 27.88H86.8629C87.7589 27.88 88.4076 28.0527 88.8089 28.398C89.2196 28.734 89.4249 29.2007 89.4249 29.798ZM88.3749 29.882C88.3749 29.5927 88.2629 29.3593 88.0389 29.182C87.8243 29.014 87.4369 28.93 86.8769 28.93H84.4689C84.0209 29.1353 83.7969 29.462 83.7969 29.91C83.7969 30.2273 83.9136 30.498 84.1469 30.722C84.3896 30.946 84.7956 31.058 85.3649 31.058H86.4009C87.0263 31.058 87.5116 30.96 87.8569 30.764C88.2023 30.568 88.3749 30.274 88.3749 29.882ZM85.8689 25.696C86.3449 25.696 86.7229 25.584 87.0029 25.36C87.2829 25.1267 87.4229 24.772 87.4229 24.296V23.904C87.4229 23.428 87.2829 23.078 87.0029 22.854C86.7229 22.6207 86.3449 22.504 85.8689 22.504C85.3929 22.504 85.0149 22.6207 84.7349 22.854C84.4549 23.078 84.3149 23.428 84.3149 23.904V24.296C84.3149 24.772 84.4549 25.1267 84.7349 25.36C85.0149 25.584 85.3929 25.696 85.8689 25.696Z" fill="white"/>
<path d="M94.36 21.776H95.48V22.952H95.536C95.7227 22.4947 95.9933 22.1587 96.348 21.944C96.712 21.72 97.146 21.608 97.65 21.608C98.098 21.608 98.504 21.6967 98.868 21.874C99.232 22.0513 99.54 22.3033 99.792 22.63C100.053 22.9567 100.249 23.3533 100.38 23.82C100.52 24.2867 100.59 24.8093 100.59 25.388C100.59 25.9667 100.52 26.4893 100.38 26.956C100.249 27.4227 100.053 27.8193 99.792 28.146C99.54 28.4727 99.232 28.7247 98.868 28.902C98.504 29.0793 98.098 29.168 97.65 29.168C96.67 29.168 95.9653 28.72 95.536 27.824H95.48V31.8H94.36V21.776ZM97.342 28.16C97.9767 28.16 98.476 27.964 98.84 27.572C99.204 27.1707 99.386 26.648 99.386 26.004V24.772C99.386 24.128 99.204 23.61 98.84 23.218C98.476 22.8167 97.9767 22.616 97.342 22.616C97.09 22.616 96.8473 22.6533 96.614 22.728C96.39 22.7933 96.194 22.8867 96.026 23.008C95.858 23.1293 95.7227 23.2787 95.62 23.456C95.5267 23.624 95.48 23.806 95.48 24.002V26.69C95.48 26.9233 95.5267 27.1333 95.62 27.32C95.7227 27.4973 95.858 27.6513 96.026 27.782C96.194 27.9033 96.39 27.9967 96.614 28.062C96.8473 28.1273 97.09 28.16 97.342 28.16Z" fill="white"/>
<path d="M105.371 29.168C104.886 29.168 104.442 29.0793 104.041 28.902C103.64 28.7247 103.294 28.4727 103.005 28.146C102.725 27.81 102.506 27.4133 102.347 26.956C102.188 26.4893 102.109 25.9667 102.109 25.388C102.109 24.8187 102.188 24.3007 102.347 23.834C102.506 23.3673 102.725 22.9707 103.005 22.644C103.294 22.308 103.64 22.0513 104.041 21.874C104.442 21.6967 104.886 21.608 105.371 21.608C105.856 21.608 106.295 21.6967 106.687 21.874C107.088 22.0513 107.434 22.308 107.723 22.644C108.012 22.9707 108.236 23.3673 108.395 23.834C108.554 24.3007 108.633 24.8187 108.633 25.388C108.633 25.9667 108.554 26.4893 108.395 26.956C108.236 27.4133 108.012 27.81 107.723 28.146C107.434 28.4727 107.088 28.7247 106.687 28.902C106.295 29.0793 105.856 29.168 105.371 29.168ZM105.371 28.174C105.978 28.174 106.472 27.9873 106.855 27.614C107.238 27.2407 107.429 26.6713 107.429 25.906V24.87C107.429 24.1047 107.238 23.5353 106.855 23.162C106.472 22.7887 105.978 22.602 105.371 22.602C104.764 22.602 104.27 22.7887 103.887 23.162C103.504 23.5353 103.313 24.1047 103.313 24.87V25.906C103.313 26.6713 103.504 27.2407 103.887 27.614C104.27 27.9873 104.764 28.174 105.371 28.174Z" fill="white"/>
<path d="M112.805 29.168C112.133 29.168 111.568 29.042 111.111 28.79C110.663 28.5287 110.276 28.1833 109.949 27.754L110.747 27.11C111.027 27.4647 111.34 27.74 111.685 27.936C112.03 28.1227 112.432 28.216 112.889 28.216C113.365 28.216 113.734 28.1133 113.995 27.908C114.266 27.7027 114.401 27.4133 114.401 27.04C114.401 26.76 114.308 26.522 114.121 26.326C113.944 26.1207 113.617 25.9807 113.141 25.906L112.567 25.822C112.231 25.7753 111.923 25.7053 111.643 25.612C111.363 25.5093 111.116 25.3787 110.901 25.22C110.696 25.052 110.532 24.8467 110.411 24.604C110.299 24.3613 110.243 24.072 110.243 23.736C110.243 23.3813 110.308 23.0733 110.439 22.812C110.57 22.5413 110.747 22.3173 110.971 22.14C111.204 21.9627 111.48 21.832 111.797 21.748C112.114 21.6547 112.455 21.608 112.819 21.608C113.407 21.608 113.897 21.7107 114.289 21.916C114.69 22.1213 115.04 22.406 115.339 22.77L114.597 23.442C114.438 23.218 114.205 23.0173 113.897 22.84C113.589 22.6533 113.202 22.56 112.735 22.56C112.268 22.56 111.914 22.6627 111.671 22.868C111.438 23.064 111.321 23.3347 111.321 23.68C111.321 24.0347 111.438 24.2913 111.671 24.45C111.914 24.6087 112.259 24.7253 112.707 24.8L113.267 24.884C114.07 25.0053 114.639 25.2387 114.975 25.584C115.311 25.92 115.479 26.3633 115.479 26.914C115.479 27.614 115.241 28.1647 114.765 28.566C114.289 28.9673 113.636 29.168 112.805 29.168Z" fill="white"/>
<path d="M119.118 29C118.726 29 118.427 28.8927 118.222 28.678C118.026 28.454 117.928 28.1647 117.928 27.81V22.756H116.738V21.776H117.41C117.652 21.776 117.816 21.7293 117.9 21.636C117.993 21.5333 118.04 21.3607 118.04 21.118V19.774H119.048V21.776H120.63V22.756H119.048V28.02H120.518V29H119.118Z" fill="white"/>
</svg>
