<svg width="32" height="32" viewBox="0 0 32 32" fill="currentColor" xmlns="http://www.w3.org/2000/svg">
    <path d="M20 31.36C19.25 31.36 18.64 30.75 18.64 30C18.64 29.25 19.25 28.64 20 28.64C20.625 28.64 21.153 29.065 21.312 29.64H24C27.11 29.64 29.64 27.111 29.64 24V8C29.64 4.89 27.111 2.36 24 2.36H17V1.64H24C27.507 1.64 30.36 4.493 30.36 8V24C30.36 27.507 27.506 30.36 24 30.36H21.312C21.153 30.936 20.625 31.36 20 31.36ZM20 29.36C19.647 29.36 19.36 29.647 19.36 30C19.36 30.353 19.647 30.64 20 30.64C20.353 30.64 20.64 30.353 20.64 30C20.64 29.647 20.353 29.36 20 29.36ZM15 30.36H8C4.493 30.36 1.64 27.506 1.64 24V8C1.64 4.493 4.493 1.64 8 1.64H10.688C10.846 1.064 11.374 0.64 12 0.64C12.75 0.64 13.36 1.25 13.36 2C13.36 2.75 12.75 3.36 12 3.36C11.375 3.36 10.847 2.936 10.688 2.36H8C4.89 2.36 2.36 4.89 2.36 8V24C2.36 27.11 4.89 29.64 8 29.64H15V30.36ZM12 1.36C11.647 1.36 11.36 1.647 11.36 2C11.36 2.353 11.647 2.64 12 2.64C12.353 2.64 12.64 2.353 12.64 2C12.64 1.647 12.353 1.36 12 1.36ZM14.334 21.134L13.665 20.866L17.665 10.866L18.333 11.134L14.334 21.134ZM20.255 20.255L19.745 19.745L23.491 16L19.745 12.254L20.255 11.745L24.509 16L20.255 20.255ZM11.746 20.255L7.491 16L11.746 11.746L12.255 12.255L8.509 16L12.254 19.745L11.746 20.255Z"/>
</svg>