<svg width="32" height="32" viewBox="0 0 32 32" fill="currentColor" xmlns="http://www.w3.org/2000/svg">
    <path d="M23 30.36C22.938 30.36 22.877 30.343 22.821 30.312L16 26.415L9.17901 30.312C9.06801 30.374 8.93301 30.374 8.82201 30.312L2.96001 26.962C2.71301 27.208 2.37401 27.36 2.00001 27.36C1.25001 27.36 0.640015 26.75 0.640015 26C0.640015 25.375 1.06401 24.847 1.64001 24.688V18C1.64001 17.871 1.70901 17.752 1.82101 17.688L8.64001 13.792V7.312C8.06401 7.154 7.64001 6.626 7.64001 6C7.64001 5.25 8.25001 4.64 9.00001 4.64C9.37401 4.64 9.71301 4.792 9.95901 5.037L15.821 1.687C15.932 1.624 16.067 1.624 16.178 1.687L23.178 5.687C23.291 5.751 23.36 5.871 23.36 6V12.688C23.935 12.846 24.36 13.374 24.36 14C24.36 14.117 24.345 14.23 24.317 14.338L30.178 17.687C30.29 17.751 30.36 17.871 30.36 17.999V25.999C30.36 26.128 30.291 26.247 30.178 26.311L23.178 30.311C23.123 30.344 23.062 30.36 23 30.36ZM16.36 25.791L23 29.585L29.64 25.791V18.209L23.96 14.963C23.468 15.453 22.532 15.453 22.04 14.963L16.36 18.209V25.791ZM3.31701 26.338L9.00001 29.585L15.64 25.791V18.209L9.00001 14.415L2.36001 18.209V24.688C2.93601 24.846 3.36001 25.375 3.36001 26C3.36001 26.117 3.34501 26.23 3.31701 26.338ZM2.00001 25.36C1.64701 25.36 1.36001 25.647 1.36001 26C1.36001 26.353 1.64701 26.64 2.00001 26.64C2.35301 26.64 2.64001 26.353 2.64001 26C2.64001 25.647 2.35301 25.36 2.00001 25.36ZM9.36001 13.791L16 17.585L21.683 14.338C21.654 14.23 21.64 14.117 21.64 14C21.64 13.375 22.065 12.847 22.64 12.688V6.209L16 2.415L10.317 5.662C10.345 5.77 10.36 5.883 10.36 6C10.36 6.625 9.93601 7.153 9.36001 7.312V13.791ZM23 13.36C22.647 13.36 22.36 13.647 22.36 14C22.36 14.353 22.647 14.64 23 14.64C23.353 14.64 23.64 14.353 23.64 14C23.64 13.647 23.353 13.36 23 13.36ZM9.00001 5.36C8.64701 5.36 8.36001 5.647 8.36001 6C8.36001 6.353 8.64701 6.64 9.00001 6.64C9.35301 6.64 9.64001 6.353 9.64001 6C9.64001 5.647 9.35301 5.36 9.00001 5.36Z"/>
</svg>