<svg width="16" height="16" viewBox="0 0 16 16" fill="currentColor" xmlns="http://www.w3.org/2000/svg">
    <path fill-rule="evenodd" clip-rule="evenodd" d="M10.5 2.99994C10.9258 2.99996 11.3231 3.10795 11.5977 3.29101C11.8574 3.46419 12 3.69393 12 3.99993V4.00695V4.01397V4.02098V4.02798V4.03497V4.04195V4.04892V4.05589V4.06284V4.06979V4.07672V4.08365V4.09057V4.09748V4.10438V4.11127V4.11816V4.12503V4.1319V4.13876V4.14561V4.15245V4.15928V4.1661V4.17292V4.17972V4.18652V4.19331V4.20009V4.20687V4.21363V4.22039V4.22713V4.23387V4.2406V4.24733V4.25404V4.26075V4.26745V4.27414V4.28082V4.2875V4.29416V4.30082V4.30747V4.31411V4.32075V4.32737V4.33399V4.3406V4.34721V4.3538V4.36039V4.36697V4.37354V4.38011V4.38666V4.39321V4.39975V4.40629V4.41281V4.41933V4.42584V4.43235V4.43885V4.44533V4.45182V4.45829V4.46476V4.47122V4.47767V4.48411V4.49055V4.49698V4.50341V4.50982V4.51623V4.52264V4.52903V4.53542V4.5418V4.54817V4.55454V4.5609V4.56725V4.5736V4.57994V4.58627V4.5926V4.59892V4.60523V4.61154V4.61784V4.62413V4.63041V4.63669V4.64297V4.64923V4.65549V4.66175V4.66799V4.67423V4.68047V4.68669V4.69291V4.69913V4.70534V4.71154V4.71774V4.72392V4.73011V4.73629V4.74246V4.74862V4.75478V4.76093V4.76708V4.77322V4.77935V4.78548V4.79161V4.79772V4.80383V4.80994V4.81604V4.82213V4.82822V4.8343V4.84038V4.84645V4.85251V4.85857V4.86463V4.87067V4.87672V4.88275V4.88878V4.89481V4.90083V4.90685V4.91286V4.91886V4.92486V4.93085V4.93684V4.94282V4.9488V4.95477V4.96074V4.9667V4.97266V4.97861V4.98456V4.9905V4.99644V5.00237V5.0083V5.01422V5.02014V5.02605V5.03196V5.03786V5.04376V5.04965V5.05554V5.06142V5.0673V5.07317V5.07904V5.08491V5.09077V5.09662V5.10247V5.10832V5.11416V5.12V5.12583V5.13166V5.13749V5.14331V5.14912V5.15493V5.16074V5.16654V5.17234V5.17814V5.18393V5.18971V5.1955V5.20127V5.20705V5.21282V5.21858V5.22434V5.2301V5.23586V5.24161V5.24735V5.25309V5.25883V5.26457V5.2703V5.27603V5.28175V5.28747V5.29319V5.2989V5.30461V5.31031V5.31601V5.32171V5.32741V5.3331V5.33879V5.34447V5.35015V5.35583V5.3615V5.36718V5.37284V5.37851V5.38417V5.38983V5.39548V5.40113V5.40678V5.41243V5.41807V5.42371V5.42935V5.43498V5.44061V5.44624V5.45186V5.45749V5.4631V5.46872V5.47433V5.47994V5.48555V5.49116V5.49676V5.50236V5.50796V5.51355V5.51914V5.52473V5.53032V5.5359V5.54149V5.54706V5.55264V5.55822V5.56379V5.56936V5.57493V5.58049V5.58605V5.59161V5.59717V5.60273V5.60828V5.61384V5.61939V5.62493V5.63048V5.63602V5.64157V5.64711V5.65264V5.65818V5.66371V5.66925V5.67478V5.6803V5.68583V5.69136V5.69688V5.7024V5.70792V5.71344V5.71896V5.72447V5.72999V5.7355V5.74101V5.74652V5.75203V5.75753V5.76304V5.76854V5.77404V5.77954V5.78504V5.79054V5.79604V5.80153V5.80703V5.81252V5.81801V5.8235V5.82899V5.83448V5.83997V5.84546V5.85094V5.85643V5.86191V5.8674V5.87288V5.87836V5.88384V5.88932V5.8948V5.90028V5.90576V5.91123V5.91671V5.92218V5.92766V5.93313V5.93861V5.94408V5.94955V5.95503V5.9605V5.96597V5.97144V5.97691V5.98238V5.98785V5.99332V5.99879V6.00426V6.00973V6.0152V6.02067V6.02614V6.03161V6.03708V6.04255V6.04802V6.05348V6.05895V6.06442V6.06989V6.07536V6.08083V6.0863V6.09177V6.09724V6.10271V6.10818V6.11365V6.11912V6.12459V6.13006V6.13554V6.14101V6.14648V6.15196V6.15743V6.1629V6.16838V6.17386V6.17933V6.18481V6.19029V6.19577V6.20125V6.20673V6.21221V6.21769V6.22317V6.22865V6.23414V6.23962V6.24511V6.2506V6.25609V6.26158V6.26707V6.27256V6.27805V6.28354V6.28904V6.29453V6.30003V6.30553V6.31103V6.31653V6.32203V6.32754V6.33304V6.33855V6.34406V6.34957V6.35508V6.36059V6.36611V6.37162V6.37714V6.38266V6.38818V6.3937V6.39922V6.40475V6.41028V6.41581V6.42134V6.42687V6.43241V6.43794V6.44348V6.44902V6.45456V6.46011V6.46565V6.4712V6.47675V6.48231V6.48786V6.49342V6.49898V6.50454V6.5101V6.51567V6.52124V6.52681V6.53238V6.53796V6.54353V6.54911V6.5547V6.56028V6.56587V6.57146V6.57705V6.58265V6.58825V6.59385V6.59945V6.60506V6.61067V6.61628V6.62189V6.62751V6.63313V6.63875V6.64438V6.65V6.65564V6.66127V6.66691V6.67255V6.67819V6.68384V6.68949V6.69514V6.7008V6.70646V6.71212V6.71778V6.72345V6.72913V6.7348V6.74048V6.74616V6.75185V6.75754V6.76323V6.76893V6.77463V6.78033V6.78603V6.79174V6.79746V6.80318V6.8089V6.81462V6.82035V6.82608V6.83182V6.83756V6.8433V6.84905V6.8548V6.86056V6.86632V6.87208V6.87785V6.88362V6.88939V6.89517V6.90095V6.90674V6.91253V6.91833V6.92413V6.92993V6.93574V6.94156V6.94737V6.95319V6.95902V6.96485V6.97068V6.97652V6.98237V6.98821V6.99407V6.99992C12 7.34765 12.098 7.64656 12.2834 7.88502C12.3126 7.92247 12.3431 7.95751 12.3749 7.9903C12.334 8.0326 12.2951 8.07874 12.2587 8.12905C12.0858 8.36855 12 8.66304 12 8.99992V9.00579V9.01165V9.01752V9.0234V9.02928V9.03516V9.04105V9.04694V9.05284V9.05874V9.06465V9.07056V9.07647V9.08239V9.08831V9.09424V9.10017V9.10611V9.11205V9.11799V9.12394V9.12989V9.13585V9.14181V9.14777V9.15374V9.15971V9.16568V9.17166V9.17764V9.18363V9.18962V9.19562V9.20161V9.20761V9.21362V9.21963V9.22564V9.23166V9.23768V9.2437V9.24972V9.25575V9.26179V9.26782V9.27386V9.27991V9.28595V9.292V9.29806V9.30411V9.31017V9.31624V9.3223V9.32837V9.33444V9.34052V9.3466V9.35268V9.35876V9.36485V9.37094V9.37703V9.38313V9.38923V9.39533V9.40143V9.40754V9.41365V9.41976V9.42588V9.432V9.43812V9.44424V9.45037V9.45649V9.46263V9.46876V9.4749V9.48103V9.48717V9.49332V9.49946V9.50561V9.51176V9.51792V9.52407V9.53023V9.53639V9.54255V9.54871V9.55488V9.56105V9.56722V9.57339V9.57956V9.58574V9.59192V9.5981V9.60428V9.61046V9.61665V9.62284V9.62903V9.63522V9.64141V9.64761V9.6538V9.66V9.6662V9.6724V9.6786V9.68481V9.69102V9.69722V9.70343V9.70964V9.71586V9.72207V9.72828V9.7345V9.74072V9.74694V9.75316V9.75938V9.7656V9.77182V9.77805V9.78428V9.7905V9.79673V9.80296V9.80919V9.81542V9.82165V9.82789V9.83412V9.84036V9.84659V9.85283V9.85907V9.86531V9.87155V9.87779V9.88403V9.89027V9.89651V9.90275V9.909V9.91524V9.92149V9.92773V9.93398V9.94022V9.94647V9.95272V9.95896V9.96521V9.97146V9.97771V9.98396V9.99021V9.99645V10.0027V10.009V10.0152V10.0215V10.0277V10.034V10.0402V10.0465V10.0527V10.059V10.0652V10.0715V10.0777V10.084V10.0902V10.0964V10.1027V10.1089V10.1152V10.1214V10.1277V10.1339V10.1402V10.1464V10.1527V10.1589V10.1652V10.1714V10.1777V10.1839V10.1901V10.1964V10.2026V10.2089V10.2151V10.2214V10.2276V10.2338V10.2401V10.2463V10.2525V10.2588V10.265V10.2712V10.2775V10.2837V10.2899V10.2962V10.3024V10.3086V10.3148V10.3211V10.3273V10.3335V10.3397V10.3459V10.3522V10.3584V10.3646V10.3708V10.377V10.3832V10.3894V10.3957V10.4019V10.4081V10.4143V10.4205V10.4267V10.4329V10.4391V10.4453V10.4515V10.4576V10.4638V10.47V10.4762V10.4824V10.4886V10.4948V10.5009V10.5071V10.5133V10.5195V10.5256V10.5318V10.538V10.5441V10.5503V10.5565V10.5626V10.5688V10.5749V10.5811V10.5872V10.5934V10.5995V10.6057V10.6118V10.6179V10.6241V10.6302V10.6363V10.6425V10.6486V10.6547V10.6608V10.6669V10.6731V10.6792V10.6853V10.6914V10.6975V10.7036V10.7097V10.7158V10.7219V10.7279V10.734V10.7401V10.7462V10.7523V10.7583V10.7644V10.7705V10.7765V10.7826V10.7887V10.7947V10.8008V10.8068V10.8129V10.8189V10.8249V10.831V10.837V10.843V10.8491V10.8551V10.8611V10.8671V10.8731V10.8791V10.8851V10.8911V10.8971V10.9031V10.9091V10.9151V10.9211V10.927V10.933V10.939V10.9449V10.9509V10.9569V10.9628V10.9688V10.9747V10.9807V10.9866V10.9925V10.9984V11.0044V11.0103V11.0162V11.0221V11.028V11.0339V11.0398V11.0457V11.0516V11.0575V11.0634V11.0693V11.0751V11.081V11.0869V11.0927V11.0986V11.1044V11.1103V11.1161V11.1219V11.1278V11.1336V11.1394V11.1452V11.151V11.1569V11.1627V11.1685V11.1742V11.18V11.1858V11.1916V11.1974V11.2031V11.2089V11.2146V11.2204V11.2261V11.2319V11.2376V11.2434V11.2491V11.2548V11.2605V11.2662V11.2719V11.2776V11.2833V11.289V11.2947V11.3004V11.306V11.3117V11.3174V11.323V11.3287V11.3343V11.3399V11.3456V11.3512V11.3568V11.3624V11.368V11.3736V11.3792V11.3848V11.3904V11.396V11.4016V11.4071V11.4127V11.4182V11.4238V11.4293V11.4349V11.4404V11.4459V11.4514V11.4569V11.4624V11.4679V11.4734V11.4789V11.4844V11.4899V11.4953V11.5008V11.5062V11.5117V11.5171V11.5226V11.528V11.5334V11.5388V11.5442V11.5496V11.555V11.5604V11.5658V11.5712V11.5765V11.5819V11.5872V11.5926V11.5979V11.6032V11.6086V11.6139V11.6192V11.6245V11.6298V11.6351V11.6404V11.6456V11.6509V11.6562V11.6614V11.6667V11.6719V11.6771V11.6823V11.6876V11.6928V11.698V11.7032V11.7083V11.7135V11.7187V11.7239V11.729V11.7342V11.7393V11.7444V11.7495V11.7547V11.7598V11.7649V11.77V11.775V11.7801V11.7852V11.7903V11.7953V11.8004V11.8054V11.8104V11.8154V11.8204V11.8255V11.8304V11.8354V11.8404V11.8454V11.8503V11.8553V11.8602V11.8652V11.8701V11.875V11.8799V11.8849V11.8897V11.8946V11.8995V11.9044V11.9092V11.9141V11.9189V11.9238V11.9286V11.9334V11.9382V11.943V11.9478V11.9526V11.9574V11.9621V11.9669V11.9716V11.9764V11.9811V11.9858V11.9905V11.9952V11.9999C12 12.306 11.8574 12.5357 11.5976 12.7089C11.3231 12.892 10.9258 12.9999 10.5 12.9999V13.9999C11.0742 13.9999 11.6769 13.8579 12.1524 13.541C12.6426 13.2141 13 12.6939 13 11.9999V11.9952V11.9905V11.9858V11.9811V11.9764V11.9716V11.9669V11.9621V11.9574V11.9526V11.9478V11.943V11.9382V11.9334V11.9286V11.9238V11.9189V11.9141V11.9092V11.9044V11.8995V11.8946V11.8897V11.8849V11.8799V11.875V11.8701V11.8652V11.8602V11.8553V11.8503V11.8454V11.8404V11.8354V11.8304V11.8255V11.8204V11.8154V11.8104V11.8054V11.8004V11.7953V11.7903V11.7852V11.7801V11.775V11.77V11.7649V11.7598V11.7547V11.7495V11.7444V11.7393V11.7342V11.729V11.7239V11.7187V11.7135V11.7083V11.7032V11.698V11.6928V11.6876V11.6823V11.6771V11.6719V11.6667V11.6614V11.6562V11.6509V11.6456V11.6404V11.6351V11.6298V11.6245V11.6192V11.6139V11.6086V11.6032V11.5979V11.5926V11.5872V11.5819V11.5765V11.5712V11.5658V11.5604V11.555V11.5496V11.5442V11.5388V11.5334V11.528V11.5226V11.5171V11.5117V11.5062V11.5008V11.4953V11.4899V11.4844V11.4789V11.4734V11.4679V11.4624V11.4569V11.4514V11.4459V11.4404V11.4349V11.4293V11.4238V11.4182V11.4127V11.4071V11.4016V11.396V11.3904V11.3848V11.3792V11.3736V11.368V11.3624V11.3568V11.3512V11.3456V11.3399V11.3343V11.3287V11.323V11.3174V11.3117V11.306V11.3004V11.2947V11.289V11.2833V11.2776V11.2719V11.2662V11.2605V11.2548V11.2491V11.2434V11.2376V11.2319V11.2261V11.2204V11.2146V11.2089V11.2031V11.1974V11.1916V11.1858V11.18V11.1742V11.1685V11.1627V11.1569V11.151V11.1452V11.1394V11.1336V11.1278V11.1219V11.1161V11.1103V11.1044V11.0986V11.0927V11.0869V11.081V11.0751V11.0693V11.0634V11.0575V11.0516V11.0457V11.0398V11.0339V11.028V11.0221V11.0162V11.0103V11.0044V10.9984V10.9925V10.9866V10.9807V10.9747V10.9688V10.9628V10.9569V10.9509V10.9449V10.939V10.933V10.927V10.9211V10.9151V10.9091V10.9031V10.8971V10.8911V10.8851V10.8791V10.8731V10.8671V10.8611V10.8551V10.8491V10.843V10.837V10.831V10.8249V10.8189V10.8129V10.8068V10.8008V10.7947V10.7887V10.7826V10.7765V10.7705V10.7644V10.7583V10.7523V10.7462V10.7401V10.734V10.7279V10.7219V10.7158V10.7097V10.7036V10.6975V10.6914V10.6853V10.6792V10.6731V10.6669V10.6608V10.6547V10.6486V10.6425V10.6363V10.6302V10.6241V10.6179V10.6118V10.6057V10.5995V10.5934V10.5872V10.5811V10.5749V10.5688V10.5626V10.5565V10.5503V10.5441V10.538V10.5318V10.5256V10.5195V10.5133V10.5071V10.5009V10.4948V10.4886V10.4824V10.4762V10.47V10.4638V10.4576V10.4515V10.4453V10.4391V10.4329V10.4267V10.4205V10.4143V10.4081V10.4019V10.3957V10.3894V10.3832V10.377V10.3708V10.3646V10.3584V10.3522V10.3459V10.3397V10.3335V10.3273V10.3211V10.3148V10.3086V10.3024V10.2962V10.2899V10.2837V10.2775V10.2712V10.265V10.2588V10.2525V10.2463V10.2401V10.2338V10.2276V10.2214V10.2151V10.2089V10.2026V10.1964V10.1901V10.1839V10.1777V10.1714V10.1652V10.1589V10.1527V10.1464V10.1402V10.1339V10.1277V10.1214V10.1152V10.1089V10.1027V10.0964V10.0902V10.084V10.0777V10.0715V10.0652V10.059V10.0527V10.0465V10.0402V10.034V10.0277V10.0215V10.0152V10.009V10.0027V9.99645V9.99021V9.98396V9.97771V9.97146V9.96521V9.95896V9.95272V9.94647V9.94022V9.93398V9.92773V9.92149V9.91524V9.909V9.90275V9.89651V9.89027V9.88403V9.87779V9.87155V9.86531V9.85907V9.85283V9.84659V9.84036V9.83412V9.82789V9.82165V9.81542V9.80919V9.80296V9.79673V9.7905V9.78428V9.77805V9.77182V9.7656V9.75938V9.75316V9.74694V9.74072V9.7345V9.72828V9.72207V9.71586V9.70964V9.70343V9.69722V9.69102V9.68481V9.6786V9.6724V9.6662V9.66V9.6538V9.64761V9.64141V9.63522V9.62903V9.62284V9.61665V9.61046V9.60428V9.5981V9.59192V9.58574V9.57956V9.57339V9.56722V9.56105V9.55488V9.54871V9.54255V9.53639V9.53023V9.52407V9.51792V9.51176V9.50561V9.49946V9.49332V9.48717V9.48103V9.4749V9.46876V9.46263V9.45649V9.45037V9.44424V9.43812V9.432V9.42588V9.41976V9.41365V9.40754V9.40143V9.39533V9.38923V9.38313V9.37703V9.37094V9.36485V9.35876V9.35268V9.3466V9.34052V9.33444V9.32837V9.3223V9.31624V9.31017V9.30411V9.29806V9.292V9.28595V9.27991V9.27386V9.26782V9.26179V9.25575V9.24972V9.2437V9.23768V9.23166V9.22564V9.21963V9.21362V9.20761V9.20161V9.19562V9.18962V9.18363V9.17764V9.17166V9.16568V9.15971V9.15374V9.14777V9.14181V9.13585V9.12989V9.12394V9.11799V9.11205V9.10611V9.10017V9.09424V9.08831V9.08239V9.07647V9.07056V9.06465V9.05874V9.05284V9.04694V9.04105V9.03516V9.02928V9.0234V9.01752V9.01165V9.00579V8.99992C13 8.83681 13.0392 8.75629 13.0694 8.71454C13.1018 8.66966 13.1554 8.62628 13.2482 8.58916C13.4565 8.50584 13.733 8.49992 14 8.49992V7.49992C13.7898 7.49992 13.5055 7.49518 13.2795 7.40825C13.1748 7.36799 13.1108 7.31999 13.0728 7.27108C13.0395 7.22829 13 7.1522 13 6.99992V6.99407V6.98821V6.98237V6.97652V6.97068V6.96485V6.95902V6.95319V6.94737V6.94156V6.93574V6.92993V6.92413V6.91833V6.91253V6.90674V6.90095V6.89517V6.88939V6.88362V6.87785V6.87208V6.86632V6.86056V6.8548V6.84905V6.8433V6.83756V6.83182V6.82608V6.82035V6.81462V6.8089V6.80318V6.79746V6.79174V6.78603V6.78033V6.77463V6.76893V6.76323V6.75754V6.75185V6.74616V6.74048V6.7348V6.72913V6.72345V6.71778V6.71212V6.70646V6.7008V6.69514V6.68949V6.68384V6.67819V6.67255V6.66691V6.66127V6.65564V6.65V6.64438V6.63875V6.63313V6.62751V6.62189V6.61628V6.61067V6.60506V6.59945V6.59385V6.58825V6.58265V6.57705V6.57146V6.56587V6.56028V6.5547V6.54911V6.54353V6.53796V6.53238V6.52681V6.52124V6.51567V6.5101V6.50454V6.49898V6.49342V6.48786V6.48231V6.47675V6.4712V6.46565V6.46011V6.45456V6.44902V6.44348V6.43794V6.43241V6.42687V6.42134V6.41581V6.41028V6.40475V6.39922V6.3937V6.38818V6.38266V6.37714V6.37162V6.36611V6.36059V6.35508V6.34957V6.34406V6.33855V6.33304V6.32754V6.32203V6.31653V6.31103V6.30553V6.30003V6.29453V6.28904V6.28354V6.27805V6.27256V6.26707V6.26158V6.25609V6.2506V6.24511V6.23962V6.23414V6.22865V6.22317V6.21769V6.21221V6.20673V6.20125V6.19577V6.19029V6.18481V6.17933V6.17386V6.16838V6.1629V6.15743V6.15196V6.14648V6.14101V6.13554V6.13006V6.12459V6.11912V6.11365V6.10818V6.10271V6.09724V6.09177V6.0863V6.08083V6.07536V6.06989V6.06442V6.05895V6.05348V6.04802V6.04255V6.03708V6.03161V6.02614V6.02067V6.0152V6.00973V6.00426V5.99879V5.99332V5.98785V5.98238V5.97691V5.97144V5.96597V5.9605V5.95503V5.94955V5.94408V5.93861V5.93313V5.92766V5.92218V5.91671V5.91123V5.90576V5.90028V5.8948V5.88932V5.88384V5.87836V5.87288V5.8674V5.86191V5.85643V5.85094V5.84546V5.83997V5.83448V5.82899V5.8235V5.81801V5.81252V5.80703V5.80153V5.79604V5.79054V5.78504V5.77954V5.77404V5.76854V5.76304V5.75753V5.75203V5.74652V5.74101V5.7355V5.72999V5.72447V5.71896V5.71344V5.70792V5.7024V5.69688V5.69136V5.68583V5.6803V5.67478V5.66925V5.66371V5.65818V5.65264V5.64711V5.64157V5.63602V5.63048V5.62493V5.61939V5.61384V5.60828V5.60273V5.59717V5.59161V5.58605V5.58049V5.57493V5.56936V5.56379V5.55822V5.55264V5.54706V5.54149V5.5359V5.53032V5.52473V5.51914V5.51355V5.50796V5.50236V5.49676V5.49116V5.48555V5.47994V5.47433V5.46872V5.4631V5.45749V5.45186V5.44624V5.44061V5.43498V5.42935V5.42371V5.41807V5.41243V5.40678V5.40113V5.39548V5.38983V5.38417V5.37851V5.37284V5.36718V5.3615V5.35583V5.35015V5.34447V5.33879V5.3331V5.32741V5.32171V5.31601V5.31031V5.30461V5.2989V5.29319V5.28747V5.28175V5.27603V5.2703V5.26457V5.25883V5.25309V5.24735V5.24161V5.23586V5.2301V5.22434V5.21858V5.21282V5.20705V5.20127V5.1955V5.18971V5.18393V5.17814V5.17234V5.16654V5.16074V5.15493V5.14912V5.14331V5.13749V5.13166V5.12583V5.12V5.11416V5.10832V5.10247V5.09662V5.09077V5.08491V5.07904V5.07317V5.0673V5.06142V5.05554V5.04965V5.04376V5.03786V5.03196V5.02605V5.02014V5.01422V5.0083V5.00237V4.99644V4.9905V4.98456V4.97861V4.97266V4.9667V4.96074V4.95477V4.9488V4.94282V4.93684V4.93085V4.92486V4.91886V4.91286V4.90685V4.90083V4.89481V4.88878V4.88275V4.87672V4.87067V4.86463V4.85857V4.85251V4.84645V4.84038V4.8343V4.82822V4.82213V4.81604V4.80994V4.80383V4.79772V4.79161V4.78548V4.77935V4.77322V4.76708V4.76093V4.75478V4.74862V4.74246V4.73629V4.73011V4.72392V4.71774V4.71154V4.70534V4.69913V4.69291V4.68669V4.68047V4.67423V4.66799V4.66175V4.65549V4.64923V4.64297V4.63669V4.63041V4.62413V4.61784V4.61154V4.60523V4.59892V4.5926V4.58627V4.57994V4.5736V4.56725V4.5609V4.55454V4.54817V4.5418V4.53542V4.52903V4.52264V4.51623V4.50982V4.50341V4.49698V4.49055V4.48411V4.47767V4.47122V4.46476V4.45829V4.45182V4.44533V4.43885V4.43235V4.42584V4.41933V4.41281V4.40629V4.39975V4.39321V4.38666V4.38011V4.37354V4.36697V4.36039V4.3538V4.34721V4.3406V4.33399V4.32737V4.32075V4.31411V4.30747V4.30082V4.29416V4.2875V4.28082V4.27414V4.26745V4.26075V4.25404V4.24733V4.2406V4.23387V4.22713V4.22039V4.21363V4.20687V4.20009V4.19331V4.18652V4.17972V4.17292V4.1661V4.15928V4.15245V4.14561V4.13876V4.1319V4.12503V4.11816V4.11127V4.10438V4.09748V4.09057V4.08365V4.07672V4.06979V4.06284V4.05589V4.04892V4.04195V4.03497V4.02798V4.02098V4.01397V4.00695V3.99993C13 3.306 12.6426 2.78577 12.1523 2.45896C11.6769 2.14202 11.0742 1.99997 10.5 1.99994L10.5 2.99994ZM5.50003 13.0001C5.07419 13 4.67694 12.892 4.40235 12.709C4.14257 12.5358 4 12.3061 4 12.0001V11.993V11.986V11.979V11.972V11.965V11.958V11.9511V11.9441V11.9372V11.9302V11.9233V11.9163V11.9094V11.9025V11.8956V11.8887V11.8818V11.875V11.8681V11.8612V11.8544V11.8476V11.8407V11.8339V11.8271V11.8203V11.8135V11.8067V11.7999V11.7931V11.7864V11.7796V11.7729V11.7661V11.7594V11.7527V11.746V11.7393V11.7326V11.7259V11.7192V11.7125V11.7058V11.6992V11.6925V11.6859V11.6793V11.6726V11.666V11.6594V11.6528V11.6462V11.6396V11.633V11.6265V11.6199V11.6133V11.6068V11.6002V11.5937V11.5872V11.5807V11.5742V11.5677V11.5612V11.5547V11.5482V11.5417V11.5352V11.5288V11.5223V11.5159V11.5094V11.503V11.4966V11.4902V11.4838V11.4774V11.471V11.4646V11.4582L4 11.4518V11.4455V11.4391V11.4327V11.4264V11.4201V11.4137V11.4074V11.4011V11.3948V11.3885V11.3822V11.3759V11.3696V11.3633V11.357V11.3508V11.3445V11.3383V11.332V11.3258V11.3195V11.3133V11.3071V11.3009V11.2947V11.2885V11.2823V11.2761V11.2699V11.2637V11.2575V11.2514V11.2452V11.2391V11.2329V11.2268V11.2206V11.2145V11.2084V11.2023V11.1962V11.1901V11.184V11.1779V11.1718V11.1657V11.1596V11.1536V11.1475V11.1414V11.1354V11.1293V11.1233V11.1172V11.1112V11.1052V11.0992V11.0932V11.0871V11.0811V11.0751V11.0691V11.0632V11.0572V11.0512V11.0452V11.0393V11.0333V11.0273V11.0214V11.0154V11.0095V11.0036V10.9976V10.9917V10.9858V10.9799V10.974V10.968V10.9621V10.9562V10.9503V10.9445V10.9386V10.9327V10.9268V10.921V10.9151V10.9092V10.9034V10.8975V10.8917V10.8858V10.88V10.8742V10.8683V10.8625V10.8567V10.8509V10.8451V10.8393V10.8335V10.8277V10.8219V10.8161V10.8103V10.8045V10.7987V10.793V10.7872V10.7814V10.7757V10.7699V10.7641V10.7584V10.7526V10.7469V10.7412V10.7354V10.7297V10.724V10.7183V10.7125V10.7068V10.7011V10.6954V10.6897V10.684V10.6783V10.6726V10.6669V10.6612V10.6555V10.6498V10.6442V10.6385V10.6328V10.6272V10.6215V10.6158V10.6102V10.6045V10.5989V10.5932V10.5876V10.5819V10.5763V10.5707V10.565V10.5594V10.5538V10.5481V10.5425V10.5369V10.5313V10.5257V10.5201V10.5144V10.5088V10.5032V10.4976V10.492V10.4864V10.4809V10.4753V10.4697V10.4641V10.4585V10.4529V10.4474V10.4418V10.4362V10.4306V10.4251V10.4195V10.4139V10.4084V10.4028V10.3973V10.3917V10.3862V10.3806V10.3751V10.3695V10.364V10.3584V10.3529V10.3474V10.3418V10.3363V10.3308V10.3252V10.3197V10.3142V10.3086V10.3031V10.2976V10.2921V10.2866V10.281V10.2755V10.27V10.2645V10.259V10.2535V10.248V10.2425V10.237V10.2315V10.226V10.2205V10.215V10.2095V10.204V10.1985V10.193V10.1875V10.182V10.1765V10.171V10.1655V10.16V10.1545V10.1491V10.1436V10.1381V10.1326V10.1271V10.1216V10.1162V10.1107V10.1052V10.0997V10.0942L4 10.0888V10.0833V10.0778V10.0723V10.0669V10.0614V10.0559V10.0504V10.045V10.0395V10.034V10.0286V10.0231V10.0176V10.0121V10.0067V10.0012V9.99574V9.99027V9.9848V9.97933V9.97386V9.96839V9.96292V9.95745V9.95198V9.94652V9.94105V9.93558V9.93011V9.92464V9.91917V9.9137V9.90823V9.90276V9.89729V9.89182V9.88635V9.88088V9.87541V9.86994V9.86446V9.85899V9.85352V9.84804V9.84257V9.8371V9.83162V9.82614V9.82067V9.81519V9.80971V9.80423V9.79875V9.79327V9.78779V9.78231V9.77683V9.77135V9.76586V9.76038V9.75489V9.7494V9.74391V9.73842V9.73293V9.72744V9.72195V9.71646V9.71096V9.70547V9.69997V9.69447V9.68897V9.68347V9.67797V9.67246V9.66696V9.66145V9.65594V9.65043V9.64492V9.63941V9.63389V9.62838V9.62286V9.61734V9.61182V9.6063V9.60078V9.59525V9.58972V9.58419V9.57866V9.57313V9.56759V9.56206V9.55652V9.55098V9.54544V9.53989V9.53435V9.5288V9.52325V9.51769V9.51214V9.50658V9.50102V9.49546V9.4899V9.48433V9.47876V9.47319V9.46762V9.46204V9.45647V9.45089V9.4453V9.43972V9.43413V9.42854V9.42295V9.41735V9.41175V9.40615V9.40055V9.39494V9.38933V9.38372V9.37811V9.37249V9.36687V9.36125V9.35562V9.35V9.34436V9.33873V9.33309V9.32745V9.32181V9.31616V9.31051V9.30486V9.2992V9.29354V9.28788V9.28222V9.27655V9.27087V9.2652V9.25952V9.25384V9.24815V9.24246V9.23677V9.23107V9.22537V9.21967V9.21397V9.20826V9.20254V9.19682V9.1911V9.18538V9.17965V9.17392V9.16818V9.16244V9.1567V9.15095V9.1452V9.13944V9.13368V9.12792V9.12215V9.11638V9.11061V9.10483V9.09905V9.09326V9.08747V9.08167V9.07587V9.07007V9.06426V9.05844V9.05263V9.04681V9.04098V9.03515V9.02932V9.02348V9.01763V9.01179V9.00593V9.00008C4 8.65235 3.90202 8.35344 3.71655 8.11498C3.68742 8.07753 3.65685 8.04249 3.62515 8.0097C3.66602 7.9674 3.70494 7.92126 3.74128 7.87095C3.91425 7.63145 4 7.33696 4 7.00008V6.99421V6.98835V6.98248V6.9766V6.97072V6.96484V6.95895V6.95306V6.94716V6.94126V6.93535V6.92944V6.92353V6.91761V6.91169V6.90576V6.89983V6.89389V6.88795V6.88201V6.87606V6.87011V6.86415V6.85819V6.85223V6.84626V6.84029V6.83432V6.82834V6.82236V6.81637V6.81038V6.80438V6.79839V6.79239V6.78638V6.78037V6.77436V6.76834V6.76232V6.7563V6.75028V6.74425V6.73821V6.73218V6.72614V6.72009V6.71405V6.708V6.70194V6.69589V6.68983V6.68376L4 6.6777V6.67163V6.66556V6.65948V6.6534V6.64732V6.64124V6.63515V6.62906V6.62297V6.61687V6.61077V6.60467V6.59857V6.59246V6.58635V6.58024V6.57412V6.568V6.56188V6.55576V6.54963V6.54351V6.53737V6.53124V6.5251V6.51897V6.51283V6.50668V6.50054V6.49439V6.48824V6.48208V6.47593V6.46977V6.46361V6.45745V6.45129V6.44512V6.43895V6.43278V6.42661V6.42044V6.41426V6.40808V6.4019V6.39572V6.38954V6.38335V6.37716V6.37097V6.36478V6.35859V6.35239V6.3462V6.34V6.3338V6.3276V6.3214V6.31519V6.30898V6.30278V6.29657V6.29036V6.28414V6.27793V6.27172V6.2655V6.25928V6.25306V6.24684V6.24062V6.2344V6.22818V6.22195V6.21572V6.2095V6.20327V6.19704V6.19081V6.18458V6.17835V6.17211V6.16588V6.15964V6.15341V6.14717V6.14093V6.13469V6.12845V6.12221V6.11597V6.10973V6.10349V6.09725V6.091V6.08476V6.07851V6.07227V6.06602V6.05978V6.05353V6.04728V6.04104V6.03479V6.02854V6.02229V6.01604V6.00979V6.00355V5.9973V5.99105V5.9848V5.97855V5.9723V5.96605V5.9598V5.95355V5.9473V5.94105V5.9348V5.92855V5.9223V5.91605V5.9098V5.90355V5.8973V5.89105V5.8848V5.87856V5.87231V5.86606V5.85981V5.85357V5.84732V5.84107V5.83483V5.82858V5.82234V5.8161V5.80985V5.80361V5.79737V5.79113V5.78489V5.77865V5.77241V5.76617V5.75993V5.7537V5.74746V5.74123V5.73499V5.72876V5.72253V5.7163V5.71007V5.70384V5.69761V5.69139V5.68516V5.67894V5.67271V5.66649V5.66027V5.65405V5.64783V5.64162V5.6354V5.62919V5.62298V5.61676V5.61055V5.60435V5.59814V5.59193V5.58573V5.57953V5.57333V5.56713V5.56093V5.55474V5.54854V5.54235V5.53616V5.52997V5.52379V5.5176V5.51142V5.50524V5.49906V5.49288V5.48671V5.48054V5.47436V5.4682V5.46203V5.45586V5.4497V5.44354V5.43738V5.43123V5.42508V5.41892V5.41277V5.40663V5.40048V5.39434V5.3882V5.38207V5.37593V5.3698V5.36367V5.35754V5.35142V5.3453V5.33918V5.33306V5.32695V5.32084V5.31473V5.30862V5.30252V5.29642V5.29032V5.28423V5.27814V5.27205V5.26597V5.25988V5.2538V5.24773V5.24166V5.23558V5.22952V5.22345V5.21739V5.21134V5.20528V5.19923V5.19318V5.18714V5.1811V5.17506V5.16903V5.163V5.15697V5.15094V5.14492V5.13891V5.13289V5.12688V5.12088V5.11487V5.10888V5.10288V5.09689V5.0909V5.08492V5.07894V5.07296V5.06699V5.06102V5.05505V5.04909V5.04314V5.03718V5.03124V5.02529V5.01935V5.01341V5.00748V5.00155V4.99563V4.98971V4.98379V4.97788V4.97197V4.96607V4.96017V4.95428V4.94839V4.9425V4.93662V4.93074V4.92487V4.919V4.91314V4.90728V4.90143V4.89558V4.88973V4.88389V4.87806V4.87223V4.8664V4.86058V4.85476V4.84895V4.84315V4.83734V4.83155V4.82575V4.81997V4.81419V4.80841V4.80264V4.79687V4.79111V4.78535V4.7796V4.77385V4.76811V4.76238V4.75665V4.75092V4.7452V4.73949V4.73378V4.72808V4.72238V4.71669V4.711V4.70532V4.69964V4.69397V4.6883V4.68264V4.67699V4.67134V4.6657V4.66006V4.65443V4.64881V4.64319V4.63757V4.63197V4.62636V4.62077V4.61518V4.60959V4.60402V4.59844V4.59288V4.58732V4.58176V4.57622V4.57067V4.56514V4.55961V4.55409V4.54857V4.54306V4.53756V4.53206V4.52657V4.52108V4.5156V4.51013V4.50466V4.49921V4.49375V4.48831V4.48287V4.47743V4.47201V4.46659V4.46118V4.45577V4.45037V4.44498V4.43959V4.43421V4.42884V4.42347V4.41812V4.41276V4.40742V4.40208V4.39675V4.39143V4.38611V4.3808V4.3755V4.3702V4.36492V4.35964V4.35436V4.3491V4.34384V4.33859V4.33334V4.3281V4.32287V4.31765V4.31244V4.30723V4.30203V4.29684V4.29165V4.28648V4.28131V4.27614V4.27099V4.26584V4.2607V4.25557V4.25045V4.24533V4.24023V4.23513V4.23003V4.22495V4.21987V4.21481V4.20975V4.20469V4.19965V4.19461V4.18958V4.18456V4.17955V4.17455V4.16955V4.16456V4.15959V4.15462V4.14965V4.1447V4.13975V4.13481V4.12989V4.12497V4.12005V4.11515V4.11025V4.10537V4.10049V4.09562V4.09076V4.08591V4.08106V4.07623V4.0714V4.06658V4.06178V4.05698V4.05218V4.0474V4.04263V4.03786V4.03311V4.02836V4.02363V4.0189V4.01418V4.00947V4.00477V4.00007C4 3.69403 4.14259 3.46427 4.40235 3.2911C4.67693 3.10805 5.07417 3.00007 5.5 3.00007V2.00007C4.92583 2.00007 4.32307 2.1421 3.84765 2.45905C3.35741 2.78587 3 3.30612 3 4.00007V4.00477V4.00947V4.01418V4.0189V4.02363V4.02836V4.03311V4.03786V4.04263V4.0474V4.05218V4.05698V4.06178V4.06658V4.0714V4.07623V4.08106V4.08591V4.09076V4.09562V4.10049V4.10537V4.11025V4.11515V4.12005V4.12497V4.12989V4.13481V4.13975V4.1447V4.14965V4.15462V4.15959V4.16456V4.16955V4.17455V4.17955V4.18456V4.18958V4.19461V4.19965V4.20469V4.20975V4.21481V4.21987V4.22495V4.23003V4.23513V4.24023V4.24533V4.25045V4.25557V4.2607V4.26584V4.27099V4.27614V4.28131V4.28648V4.29165V4.29684V4.30203V4.30723V4.31244V4.31765V4.32287V4.3281V4.33334V4.33859V4.34384V4.3491V4.35436V4.35964V4.36492V4.3702V4.3755V4.3808V4.38611V4.39143V4.39675V4.40208V4.40742V4.41276V4.41812V4.42347V4.42884V4.43421V4.43959V4.44498V4.45037V4.45577V4.46118V4.46659V4.47201V4.47743V4.48287V4.48831V4.49375V4.49921V4.50466V4.51013V4.5156V4.52108V4.52657V4.53206V4.53756V4.54306V4.54857V4.55409V4.55961V4.56514V4.57067V4.57622V4.58176V4.58732V4.59288V4.59844V4.60402V4.60959V4.61518V4.62077V4.62636V4.63197L3 4.63757V4.64319V4.64881V4.65443V4.66006V4.6657V4.67134V4.67699V4.68264V4.6883V4.69397V4.69964V4.70532V4.711V4.71669V4.72238V4.72808V4.73378V4.73949V4.7452V4.75092V4.75665V4.76238V4.76811V4.77385V4.7796V4.78535V4.79111V4.79687V4.80264V4.80841V4.81419V4.81997V4.82575V4.83155V4.83734V4.84315V4.84895V4.85476V4.86058V4.8664V4.87223V4.87806V4.88389V4.88973V4.89558V4.90143V4.90728V4.91314V4.919V4.92487V4.93074V4.93662V4.9425V4.94839V4.95428V4.96017V4.96607V4.97197V4.97788V4.98379V4.98971V4.99563V5.00155V5.00748V5.01341V5.01935V5.02529V5.03124V5.03718V5.04314V5.04909V5.05505V5.06102V5.06699V5.07296V5.07894V5.08492V5.0909V5.09689V5.10288V5.10888V5.11487V5.12088V5.12688V5.13289V5.13891V5.14492V5.15094V5.15697V5.163V5.16903V5.17506V5.1811V5.18714V5.19318V5.19923V5.20528V5.21134V5.21739V5.22345V5.22952V5.23558V5.24166V5.24773V5.2538V5.25988V5.26597V5.27205V5.27814V5.28423V5.29032V5.29642V5.30252V5.30862V5.31473V5.32084V5.32695V5.33306V5.33918V5.3453V5.35142V5.35754V5.36367V5.3698V5.37593V5.38207V5.3882V5.39434V5.40048V5.40663V5.41277V5.41892V5.42508V5.43123V5.43738V5.44354V5.4497V5.45586V5.46203V5.4682V5.47436V5.48054V5.48671V5.49288V5.49906V5.50524V5.51142V5.5176V5.52379V5.52997V5.53616V5.54235V5.54854V5.55474V5.56093V5.56713V5.57333V5.57953V5.58573V5.59193V5.59814V5.60435V5.61055V5.61676V5.62298V5.62919V5.6354V5.64162V5.64783V5.65405V5.66027V5.66649V5.67271V5.67894V5.68516V5.69139V5.69761V5.70384V5.71007V5.7163V5.72253V5.72876V5.73499V5.74123V5.74746V5.7537V5.75993V5.76617V5.77241V5.77865V5.78489V5.79113V5.79737V5.80361V5.80985V5.8161V5.82234V5.82858V5.83483V5.84107V5.84732V5.85357V5.85981V5.86606V5.87231V5.87856V5.8848V5.89105V5.8973V5.90355V5.9098V5.91605V5.9223V5.92855V5.9348V5.94105V5.9473V5.95355V5.9598V5.96605V5.9723V5.97855V5.9848V5.99105V5.9973L3 6.00355V6.00979V6.01604V6.02229V6.02854V6.03479V6.04104V6.04728V6.05353V6.05978V6.06602V6.07227V6.07851V6.08476V6.091V6.09725V6.10349V6.10973V6.11597V6.12221V6.12845V6.13469V6.14093V6.14717V6.15341V6.15964V6.16588V6.17211V6.17835V6.18458V6.19081V6.19704V6.20327V6.2095V6.21572V6.22195V6.22818V6.2344V6.24062V6.24684V6.25306V6.25928V6.2655V6.27172V6.27793V6.28414V6.29036V6.29657V6.30278V6.30898V6.31519V6.3214V6.3276V6.3338V6.34V6.3462V6.35239V6.35859V6.36478V6.37097V6.37716V6.38335V6.38954V6.39572V6.4019V6.40808V6.41426V6.42044V6.42661V6.43278V6.43895V6.44512V6.45129V6.45745V6.46361V6.46977V6.47593V6.48208V6.48824V6.49439V6.50054V6.50668V6.51283V6.51897V6.5251V6.53124V6.53737V6.54351V6.54963V6.55576V6.56188V6.568V6.57412V6.58024V6.58635V6.59246V6.59857V6.60467V6.61077V6.61687V6.62297V6.62906V6.63515V6.64124V6.64732V6.6534V6.65948V6.66556V6.67163V6.6777V6.68376V6.68983V6.69589V6.70194V6.708V6.71405V6.72009V6.72614V6.73218V6.73821V6.74425V6.75028V6.7563V6.76232V6.76834V6.77436V6.78037V6.78638V6.79239V6.79839V6.80438V6.81038V6.81637V6.82236V6.82834V6.83432V6.84029V6.84626V6.85223V6.85819V6.86415V6.87011V6.87606V6.88201V6.88795V6.89389V6.89983V6.90576V6.91169V6.91761V6.92353V6.92944V6.93535V6.94126V6.94716V6.95306V6.95895V6.96484V6.97072V6.9766V6.98248V6.98835V6.99421V7.00008C3 7.16319 2.96075 7.24371 2.9306 7.28546C2.89818 7.33034 2.84459 7.37372 2.7518 7.41084C2.5435 7.49416 2.26699 7.50008 2 7.50008V8.50008C2.21023 8.50008 2.4945 8.50482 2.72051 8.59175C2.82518 8.63201 2.88916 8.68001 2.9272 8.72892C2.96048 8.77171 3 8.8478 3 9.00008V9.00593V9.01179V9.01763V9.02348V9.02932V9.03515V9.04098V9.04681V9.05263V9.05844V9.06426L3 9.07007V9.07587V9.08167V9.08747V9.09326V9.09905V9.10483V9.11061V9.11638V9.12215V9.12792V9.13368V9.13944V9.1452V9.15095V9.1567V9.16244V9.16818V9.17392V9.17965V9.18538V9.1911V9.19682V9.20254V9.20826V9.21397V9.21967V9.22537V9.23107V9.23677V9.24246V9.24815V9.25384V9.25952V9.2652V9.27087V9.27655V9.28222V9.28788V9.29354V9.2992V9.30486V9.31051V9.31616V9.32181V9.32745V9.33309V9.33873V9.34436V9.35V9.35562V9.36125V9.36687V9.37249V9.37811V9.38372V9.38933V9.39494V9.40055V9.40615V9.41175V9.41735V9.42295V9.42854V9.43413V9.43972V9.4453V9.45089V9.45647V9.46204V9.46762V9.47319V9.47876V9.48433V9.4899V9.49546V9.50102V9.50658V9.51214V9.51769V9.52325V9.5288V9.53435V9.53989V9.54544V9.55098V9.55652V9.56206V9.56759V9.57313V9.57866V9.58419V9.58972V9.59525V9.60078V9.6063V9.61182V9.61734V9.62286V9.62838V9.63389V9.63941V9.64492V9.65043V9.65594V9.66145V9.66696V9.67246V9.67797V9.68347V9.68897V9.69447V9.69997V9.70547V9.71096V9.71646V9.72195V9.72744V9.73293V9.73842V9.74391V9.7494L3 9.75489V9.76038V9.76586V9.77135V9.77683V9.78231V9.78779V9.79327V9.79875V9.80423V9.80971V9.81519V9.82067V9.82614V9.83162V9.8371V9.84257V9.84804V9.85352V9.85899V9.86446V9.86994V9.87541V9.88088V9.88635V9.89182V9.89729V9.90276V9.90823V9.9137V9.91917V9.92464V9.93011V9.93558V9.94105V9.94652V9.95198V9.95745V9.96292V9.96839V9.97386V9.97933V9.9848V9.99027V9.99574V10.0012V10.0067V10.0121V10.0176V10.0231V10.0286V10.034V10.0395V10.045V10.0504V10.0559V10.0614V10.0669V10.0723V10.0778V10.0833V10.0888V10.0942V10.0997V10.1052V10.1107V10.1162V10.1216V10.1271V10.1326V10.1381V10.1436V10.1491V10.1545V10.16V10.1655V10.171V10.1765V10.182V10.1875V10.193V10.1985V10.204V10.2095V10.215V10.2205V10.226V10.2315V10.237V10.2425V10.248V10.2535V10.259V10.2645V10.27V10.2755V10.281V10.2866V10.2921V10.2976V10.3031V10.3086V10.3142V10.3197V10.3252V10.3308V10.3363V10.3418V10.3474V10.3529V10.3584V10.364V10.3695V10.3751V10.3806V10.3862V10.3917V10.3973V10.4028V10.4084V10.4139V10.4195V10.4251V10.4306L3 10.4362V10.4418V10.4474V10.4529V10.4585V10.4641V10.4697V10.4753V10.4809V10.4864V10.492V10.4976V10.5032V10.5088V10.5144V10.5201V10.5257V10.5313V10.5369V10.5425V10.5481V10.5538V10.5594V10.565V10.5707V10.5763V10.5819V10.5876V10.5932V10.5989V10.6045V10.6102V10.6158V10.6215V10.6272V10.6328V10.6385V10.6442V10.6498V10.6555V10.6612V10.6669V10.6726V10.6783V10.684V10.6897V10.6954V10.7011V10.7068V10.7125V10.7183V10.724V10.7297V10.7354V10.7412V10.7469V10.7526V10.7584V10.7641V10.7699V10.7757V10.7814V10.7872V10.793V10.7987V10.8045V10.8103V10.8161V10.8219V10.8277V10.8335V10.8393V10.8451V10.8509V10.8567V10.8625V10.8683V10.8742V10.88V10.8858V10.8917V10.8975V10.9034V10.9092V10.9151V10.921V10.9268V10.9327V10.9386V10.9445V10.9503V10.9562V10.9621V10.968V10.974V10.9799V10.9858V10.9917V10.9976V11.0036V11.0095V11.0154V11.0214V11.0273V11.0333V11.0393V11.0452V11.0512V11.0572V11.0632V11.0691V11.0751V11.0811V11.0871V11.0932V11.0992V11.1052V11.1112L3 11.1172V11.1233V11.1293V11.1354V11.1414V11.1475V11.1536V11.1596V11.1657V11.1718V11.1779V11.184V11.1901V11.1962V11.2023V11.2084V11.2145V11.2206V11.2268V11.2329V11.2391V11.2452V11.2514V11.2575V11.2637V11.2699V11.2761V11.2823V11.2885V11.2947V11.3009V11.3071V11.3133V11.3195V11.3258V11.332V11.3383V11.3445V11.3508V11.357V11.3633V11.3696V11.3759V11.3822V11.3885V11.3948V11.4011V11.4074V11.4137V11.4201V11.4264V11.4327V11.4391V11.4455V11.4518V11.4582V11.4646V11.471V11.4774V11.4838V11.4902V11.4966V11.503V11.5094V11.5159V11.5223V11.5288V11.5352V11.5417V11.5482V11.5547V11.5612V11.5677V11.5742V11.5807V11.5872V11.5937V11.6002V11.6068V11.6133V11.6199V11.6265V11.633V11.6396V11.6462V11.6528V11.6594V11.666V11.6726V11.6793V11.6859V11.6925V11.6992V11.7058V11.7125V11.7192V11.7259V11.7326V11.7393V11.746V11.7527V11.7594V11.7661V11.7729V11.7796V11.7864V11.7931L3 11.7999V11.8067V11.8135V11.8203V11.8271V11.8339V11.8407V11.8476V11.8544V11.8612V11.8681V11.875V11.8818V11.8887V11.8956V11.9025V11.9094V11.9163V11.9233V11.9302V11.9372V11.9441V11.9511V11.958V11.965V11.972V11.979V11.986V11.993V12.0001C3 12.694 3.35743 13.2142 3.84765 13.541C4.32306 13.858 4.92581 14 5.49997 14.0001L5.50003 13.0001Z"/>
</svg>
