<svg width="16" height="16" viewBox="0 0 16 16" fill="currentColor" xmlns="http://www.w3.org/2000/svg">
    <path fill-rule="evenodd" clip-rule="evenodd" d="M8.00002 0.99995C6.33816 1.00017 4.73059 1.59164 3.46487 2.66855C2.19915 3.74545 1.35785 5.23755 1.09147 6.87792C0.825092 8.51829 1.15101 10.1999 2.01091 11.622C2.87082 13.0441 4.20863 14.1139 5.78502 14.64C6.13502 14.705 6.28502 14.49 6.28502 14.305C6.28502 14.12 6.28502 13.7 6.28502 13.115C4.34002 13.535 3.93002 12.175 3.93002 12.175C3.79325 11.7464 3.50538 11.3821 3.12002 11.15C2.48502 10.72 3.17002 10.725 3.17002 10.725C3.39182 10.7563 3.60353 10.8379 3.78897 10.9635C3.97442 11.0892 4.1287 11.2556 4.24002 11.45C4.43369 11.7973 4.75739 12.0536 5.13994 12.1623C5.52248 12.2711 5.93257 12.2235 6.28002 12.03C6.30825 11.6752 6.46465 11.3428 6.72002 11.095C5.17002 10.915 3.53502 10.315 3.53502 7.63495C3.52368 6.9389 3.78163 6.26536 4.25502 5.75495C4.04075 5.15205 4.0658 4.48994 4.32502 3.90495C4.32502 3.90495 4.91002 3.71495 6.25002 4.61995C7.39576 4.30742 8.60428 4.30742 9.75002 4.61995C11.085 3.71495 11.67 3.90495 11.67 3.90495C11.9292 4.48994 11.9543 5.15205 11.74 5.75495C12.2134 6.26536 12.4714 6.9389 12.46 7.63495C12.46 10.325 10.825 10.915 9.26502 11.09C9.43213 11.2593 9.56099 11.4626 9.64293 11.6859C9.72487 11.9093 9.75797 12.1477 9.74002 12.385C9.74002 13.32 9.74002 14.075 9.74002 14.305C9.74002 14.535 9.86502 14.71 10.24 14.64C11.8185 14.1132 13.1577 13.0414 14.0174 11.6167C14.8772 10.192 15.2013 8.50758 14.9317 6.86554C14.662 5.22351 13.8162 3.73124 12.546 2.65633C11.2757 1.58143 9.66404 0.994202 8.00002 0.99995V0.99995Z"/>
</svg>
