<svg width="16" height="16" viewBox="0 0 16 16" fill="currentColor" xmlns="http://www.w3.org/2000/svg">
    <path fill-rule="evenodd" clip-rule="evenodd" d="M3 2.005H13C13.2652 2.005 13.5196 2.11036 13.7071 2.2979C13.8946 2.48543 14 2.73979 14 3.005V5H2V3.005C2 2.73979 2.10536 2.48543 2.29289 2.2979C2.48043 2.11036 2.73478 2.005 3 2.005ZM2 6V13.005C2 13.2702 2.10536 13.5246 2.29289 13.7121C2.48043 13.8996 2.73478 14.005 3 14.005H13C13.2652 14.005 13.5196 13.8996 13.7071 13.7121C13.8946 13.5246 14 13.2702 14 13.005V6H2ZM5.38 8.09001L6.79 9.50501L5.38 10.92L6.085 11.625L8.205 9.50501L6.085 7.38501L5.38 8.09001Z"/>
</svg>
