<svg width="16" height="16" viewBox="0 0 16 16" fill="currentColor" xmlns="http://www.w3.org/2000/svg">
	<path fill-rule="evenodd" clip-rule="evenodd" d="M9.35 1.15001L12.85 4.65001C12.8989 4.694 12.9376 4.74809 12.9635 4.80852C12.9894 4.86895 13.0018 4.93429 13 5.00001V14C12.9992 14.265 12.8936 14.5189 12.7062 14.7063C12.5189 14.8936 12.265 14.9992 12 15H4C3.73502 14.9992 3.48112 14.8936 3.29375 14.7063C3.10638 14.5189 3.00078 14.265 3 14V2.00001C3.00078 1.73503 3.10638 1.48113 3.29375 1.29376C3.48112 1.10639 3.73502 1.00079 4 1.00001H9C9.06572 0.998171 9.13106 1.01063 9.19149 1.03653C9.25192 1.06243 9.30601 1.10115 9.35 1.15001ZM11.8 5.00001L9 2.20001V5.00001H11.8ZM4 14H12V6.00001H9C8.73502 5.99923 8.48112 5.89362 8.29375 5.70626C8.10638 5.51889 8.00078 5.26499 8 5.00001V2.00001H4V14ZM6.35355 7.64645C6.15829 7.45118 5.84171 7.45118 5.64645 7.64645C5.45118 7.84171 5.45118 8.15829 5.64645 8.35355L7.29289 10L5.64645 11.6464C5.45118 11.8417 5.45118 12.1583 5.64645 12.3536C5.84171 12.5488 6.15829 12.5488 6.35355 12.3536L8 10.7071L9.64645 12.3536C9.84171 12.5488 10.1583 12.5488 10.3536 12.3536C10.5488 12.1583 10.5488 11.8417 10.3536 11.6464L8.70711 10L10.3536 8.35355C10.5488 8.15829 10.5488 7.84171 10.3536 7.64645C10.1583 7.45118 9.84171 7.45118 9.64645 7.64645L8 9.29289L6.35355 7.64645Z"/>
</svg>