<svg width="16" height="16" viewBox="0 0 16 16" fill="currentColor" xmlns="http://www.w3.org/2000/svg" overflow="visible" style="overflow: visible">
	<path fill-rule="evenodd" clip-rule="evenodd" d="M3.15946 0H2.87078L2.72644 0.25L0.417043 4.25L0.272705 4.5L0.417043 4.75L2.58211 8.5L0.417043 12.25L0.272705 12.5L0.417043 12.75L2.72644 16.75L2.87078 17H3.15946H7.77826H8.06693L8.21127 16.75L10.3763 13H14.7082H14.9969L15.1412 12.75L17.4506 8.75L17.5949 8.5L17.4506 8.25L15.1412 4.25L14.9969 4H14.7082H10.3763L8.21127 0.25L8.06693 0H7.77826H3.15946ZM7.48958 8H3.44813L1.42741 4.5L3.44813 1L7.48958 1L9.51031 4.5L7.48958 8ZM1.42741 12.5L3.44813 9H7.48958L9.51031 12.5L7.48958 16H3.44813L1.42741 12.5ZM2.43316 4.75806L4.17451 1.74195L5.04054 2.24195L3.29918 5.25806L2.43316 4.75806ZM11.1044 5.74195L9.36309 8.75806L10.2291 9.25806L11.9705 6.24195L11.1044 5.74195ZM2.43316 12.7581L4.17451 9.74195L5.04054 10.242L3.29918 13.2581L2.43316 12.7581ZM8.35734 8.5L10.3781 5H14.4195L16.4402 8.5L14.4195 12H10.3781L8.35734 8.5Z"/>
</svg>
