<svg width="16" height="16" viewBox="0 0 16 16" fill="currentColor" xmlns="http://www.w3.org/2000/svg">
    <path d="M10.5 12H5.49999V13H10.5V12Z"/>
    <path d="M9.49999 14H6.49999V15H9.49999V14Z"/>
    <path d="M7.99999 1C6.67391 1 5.40214 1.52678 4.46446 2.46447C3.52678 3.40215 2.99999 4.67392 2.99999 6C2.96618 6.72667 3.10538 7.45098 3.40614 8.11335C3.7069 8.77572 4.16063 9.35722 4.72999 9.81C5.22999 10.275 5.49999 10.54 5.49999 11H6.49999C6.49999 10.08 5.94499 9.565 5.40499 9.07C4.93767 8.71213 4.56523 8.24514 4.32028 7.70992C4.07534 7.1747 3.96536 6.58759 3.99999 6C3.99999 4.93913 4.42142 3.92172 5.17157 3.17157C5.92171 2.42143 6.93913 2 7.99999 2C9.06086 2 10.0783 2.42143 10.8284 3.17157C11.5786 3.92172 12 4.93913 12 6C12.034 6.58802 11.9233 7.17541 11.6775 7.71067C11.4316 8.24592 11.0582 8.71267 10.59 9.07C10.055 9.57 9.49999 10.07 9.49999 11H10.5C10.5 10.54 10.765 10.275 11.27 9.805C11.839 9.35299 12.2925 8.77235 12.5932 8.11085C12.894 7.44935 13.0334 6.72589 13 6C13 5.34339 12.8707 4.69321 12.6194 4.08658C12.3681 3.47995 11.9998 2.92876 11.5355 2.46447C11.0712 2.00017 10.52 1.63188 9.91341 1.3806C9.30678 1.12933 8.6566 1 7.99999 1Z"/>
</svg>