<svg width="16" height="16" viewBox="0 0 16 16" fill="currentColor" xmlns="http://www.w3.org/2000/svg">
    <g clip-path="url(#clip0_823_1209)">
        <path d="M10.2242 0.0631759L2.23284 2.10531L0.00543344 10.0475L5.77007 15.9474L13.7615 13.9053L15.9889 5.96307L10.2242 0.0631759Z" fill="#B8B8B8"/>
        <path d="M12.02 11.7965L9.77814 2.95449L3.24223 9.31552L12.02 11.7965Z" fill="#B8B8B8"/>
        <path d="M10.2244 0.0633912L9.77818 2.95449L2.23297 2.10553L10.2244 0.0633912Z" fill="#B8B8B8"/>
        <path d="M2.23284 2.10531L3.24213 9.3153L0.00543344 10.0475L2.23284 2.10531Z" fill="#B8B8B8"/>
        <path d="M3.24225 9.31549L5.77019 15.9476L12.02 11.7964L3.24225 9.31549Z" fill="#6C6C6C"/>
        <path d="M12.02 11.7964L15.989 5.96325L9.77814 2.95445L12.02 11.7964Z" fill="#727272"/>
        <path d="M12.02 11.7965L13.7616 13.9055L5.77019 15.9476L12.02 11.7965Z" fill="#3F3F3F"/>
        <path d="M12.02 11.7964L15.989 5.96326L13.7616 13.9055L12.02 11.7964Z" fill="#555555"/>
        <path d="M2.23295 2.1055L9.77816 2.95446L3.24225 9.31549L2.23295 2.1055Z" fill="#E1E1E1"/>
        <path d="M10.2244 0.0634026L9.77816 2.9545L15.989 5.9633L10.2244 0.0634026Z" fill="#939393"/>
        <path d="M3.24225 9.31553L5.77019 15.9476L0.0055542 10.0477L3.24225 9.31553Z" fill="#5F5F5F"/>
    </g>
</svg>