<svg width="16" height="16" viewBox="0 0 16 16" fill="currentColor" xmlns="http://www.w3.org/2000/svg" overflow="visible" style="overflow: visible">
    <path fill-rule="evenodd" clip-rule="evenodd" d="M3.15946 0H2.87078L2.72644 0.25L0.417043 4.25L0.272705 4.5L0.417043 4.75L2.58211 8.5L0.417043 12.25L0.272705 12.5L0.417043 12.75L2.72644 16.75L2.87078 17H3.15946H5V16H3.44813L1.42741 12.5L3.44813 9H7.48958L8.64428 11H9.80071L8.35734 8.5L10.3781 5H14.4195L16.4402 8.5L14.9969 11H16.1516L17.4506 8.75L17.5949 8.5L17.4506 8.25L15.1412 4.25L14.9969 4H14.7082H10.3763L8.21127 0.25L8.06693 0H7.77826H3.15946ZM7.48958 8H3.44813L1.42741 4.5L3.44813 1L7.48958 1L9.51031 4.5L7.48958 8ZM2.43316 4.75806L4.17451 1.74195L5.04054 2.24195L3.29918 5.25806L2.43316 4.75806ZM2.4332 12.7581L4.17455 9.74195L5.04058 10.242L3.29922 13.2581L2.4332 12.7581ZM9.36313 8.75806L11.1045 5.74195L11.9705 6.24195L10.2292 9.25806L9.36313 8.75806ZM7 13C7 12.4477 7.44772 12 8 12H9.5H10V13H9.5H8V14H9C9.55228 14 10 14.4477 10 15V16C10 16.5523 9.55228 17 9 17H7.5H7V16H7.5H9V15H8C7.44772 15 7 14.5523 7 14V13ZM11 16.5V12.5V12H11.75L11.9 12.2L13 13.6667L14.1 12.2L14.25 12H15V12.5V16.5V17H14V16.5V14L13.4 14.8L13 15.3333L12.6 14.8L12 14V16.5V17H11V16.5ZM17 16.5V12.5V12H16V12.5V16.5V17H17V16.5Z"/>
</svg>
