<svg width="16" height="16" viewBox="0 0 16 16" fill="currentColor" xmlns="http://www.w3.org/2000/svg">
    <path fill-rule="evenodd" clip-rule="evenodd" d="M6 12H5.98226L3.96282 8.5L5.98226 5H10.0178L12.0373 8.5L11.1718 10H12.3263L13.1918 8.5L10.5954 4H5.40472L2.8083 8.5L5.40472 13H6V12ZM6 14H4.82719L1.65378 8.5L4.82719 3H11.1729L14.3463 8.5L13.4808 10H14.6353L15.5008 8.5L11.7504 2H4.24966L0.499268 8.5L4.24966 15H6V14ZM7 12C7 11.4477 7.44772 11 8 11H10V12H8V15H10V16H8C7.44772 16 7 15.5523 7 15V12ZM11 11V16H12V11H11ZM13 11H13.5H16V12H14V13H15.5V14H14V16H13V11.5V11Z"/>
</svg>