<svg width="16" height="16" viewBox="0 0 16 16" fill="currentColor" xmlns="http://www.w3.org/2000/svg">
    <path d="M4.3418 3.01825C5.46357 2.93764 6.57707 3.26369 7.47852 3.93622L7.51855 3.96844C6.97668 4.52214 6.567 5.18209 6.31152 5.89911C6.10298 5.70787 5.86429 5.55157 5.60254 5.44305C5.30816 5.32105 4.99249 5.25854 4.67383 5.25848C4.35498 5.25848 4.03869 5.32096 3.74414 5.44305C3.44961 5.56516 3.18236 5.74482 2.95703 5.9704L2.7959 6.14813C2.44417 6.58024 2.25084 7.12321 2.25195 7.68524C2.2533 8.3275 2.50945 8.94327 2.96387 9.39716L2.95801 9.40497C3.18307 9.62995 3.45017 9.80848 3.74414 9.93036C4.03871 10.0525 4.35495 10.1159 4.67383 10.1159C4.99255 10.1159 5.30811 10.0524 5.60254 9.93036C5.86533 9.82142 6.10437 9.66448 6.31348 9.47235C6.56773 10.1835 6.97435 10.8378 7.51074 11.3884L7.45117 11.4382C6.55185 12.1033 5.4438 12.425 4.32812 12.3444C3.21255 12.2638 2.16249 11.7862 1.36816 10.9987L1.37891 10.987L1.36816 10.9919C0.492034 10.1138 6.33728e-06 8.92371 0 7.68329C7.23477e-05 6.44289 0.492007 5.25274 1.36816 4.37469L1.52051 4.23016C2.29648 3.52208 3.28996 3.09388 4.3418 3.01825Z"/>
    <path d="M11.3145 3C11.9301 3.00006 12.5397 3.12155 13.1084 3.35742C13.6061 3.56384 14.0638 3.85448 14.4619 4.21582L14.6289 4.375L14.7881 4.54199C15.1486 4.94029 15.4387 5.39799 15.6445 5.89551C15.8797 6.46416 16.0003 7.07408 16 7.68945C15.9997 8.30477 15.8783 8.91406 15.6426 9.48242C15.4068 10.0508 15.0613 10.5671 14.626 11.002C14.1907 11.4368 13.674 11.7824 13.1055 12.0176C12.5368 12.2528 11.9269 12.3734 11.3115 12.373C10.0689 12.3724 8.87733 11.8781 7.99902 10.999L8.00195 10.9883L7.99902 10.9922C7.12281 10.1141 6.63087 8.92408 6.63086 7.68359C6.63086 6.44309 7.12279 5.25311 7.99902 4.375C8.43404 3.93918 8.95074 3.59335 9.51953 3.35742C10.0884 3.12149 10.6986 3 11.3145 3ZM11.3105 5.25195C10.6667 5.25197 10.049 5.50857 9.59375 5.96387C9.13872 6.41904 8.88294 7.03608 8.88281 7.67969C8.88281 8.32347 9.13861 8.9412 9.59375 9.39648L9.58008 9.40918L9.60742 9.40332C10.0627 9.85863 10.6803 10.1143 11.3242 10.1143C11.9681 10.1142 12.5857 9.85861 13.041 9.40332C13.4962 8.94803 13.752 8.33032 13.752 7.68652C13.7519 7.04275 13.4962 6.42495 13.041 5.96973L13.0488 5.94141L13.0273 5.96387C12.572 5.50856 11.9545 5.25195 11.3105 5.25195Z"/>
</svg>