<svg width="16" height="16" viewBox="0 0 16 16" fill="currentColor" xmlns="http://www.w3.org/2000/svg">
    <path fill-rule="evenodd" clip-rule="evenodd" d="M0 0H8V1H0V0ZM0 2H8V3H0V2ZM5 4H0V5H5V4ZM9 12C10.6569 12 12 10.6569 12 9C12 7.34315 10.6569 6 9 6C7.34315 6 6 7.34315 6 9C6 10.6569 7.34315 12 9 12ZM12.1599 11.4529C12.6864 10.7755 13 9.92437 13 9C13 6.79086 11.2091 5 9 5C6.79086 5 5 6.79086 5 9C5 11.2091 6.79086 13 9 13C9.92434 13 10.7754 12.6865 11.4528 12.16L14.8036 15.5108L15.5107 14.8037L12.1599 11.4529Z"/>
</svg>