<svg width="16" height="16" viewBox="0 0 16 16" fill="currentColor" xmlns="http://www.w3.org/2000/svg">
    <path fill-rule="evenodd" clip-rule="evenodd" d="M1.65378 8.5L3 10.8332V12.8342L0.499268 8.5L4.24966 2H11.7504L15.5008 8.5L14.6353 10H13.4808L14.3463 8.5L11.1729 3H4.82719L1.65378 8.5ZM5.7066 4.5307L3.422 8.50348L4.28888 9.002L6.57348 5.02921L5.7066 4.5307ZM4 11V11.5V15.5V16H5V15.5V13L5.6 13.8L6 14.3333L6.4 13.8L7 13V15.5V16H8V15.5V11.5V11H7.25L7.1 11.2L6 12.6667L4.9 11.2L4.75 11H4ZM10 11C9.44772 11 9 11.4477 9 12V15C9 15.5523 9.44772 16 10 16H11C11.5523 16 12 15.5523 12 15V12C12 11.4477 11.5523 11 11 11H10ZM10 12H11V15H10V12ZM14 11.5V11H13V11.5V15.5V16H13.5H15.5H16V15H15.5H14V11.5Z"/>
</svg>