<svg width="16" height="16" viewBox="0 0 16 16" fill="currentColor" xmlns="http://www.w3.org/2000/svg">
    <path fill-rule="evenodd" clip-rule="evenodd" d="M7.5 1H8.5V2.5H7.5V1ZM13.5 7.5H15V8.5H13.5V7.5ZM8.5 15V13.5H7.5V15H8.5ZM1 7.5H2.5V8.5H1V7.5ZM3.43207 2.73465L2.72496 3.44176L3.78562 4.50242L4.49273 3.79531L3.43207 2.73465ZM11.4998 3.79045L12.5605 2.72979L13.2676 3.4369L12.2069 4.49756L11.4998 3.79045ZM12.2083 11.5011L11.5012 12.2082L12.5618 13.2689L13.2689 12.5618L12.2083 11.5011ZM3.795 11.5L2.735 12.565L3.44 13.27L4.5 12.21L3.795 11.5ZM11 8C11 9.65685 9.65685 11 8 11C6.34315 11 5 9.65685 5 8C5 6.34315 6.34315 5 8 5C9.65685 5 11 6.34315 11 8ZM12 8C12 10.2091 10.2091 12 8 12C5.79086 12 4 10.2091 4 8C4 5.79086 5.79086 4 8 4C10.2091 4 12 5.79086 12 8Z"/>
</svg>