<svg width="16" height="16" viewBox="0 0 16 16" fill="currentColor" xmlns="http://www.w3.org/2000/svg">
	<path fill-rule="evenodd" clip-rule="evenodd" d="M5.98226 12H10.0178L12.0373 8.5L10.0178 5H5.98226L3.96282 8.5L5.98226 12ZM0.499268 8.5L4.24966 15H11.7504L15.5008 8.5L11.7504 2H4.24966L0.499268 8.5ZM5.40472 13H10.5954L13.1918 8.5L10.5954 4H5.40472L2.8083 8.5L5.40472 13ZM0.499268 8.5L4.24966 15H11.7504L15.5008 8.5L11.7504 2H4.24966L0.499268 8.5ZM4.82719 14H11.1729L14.3463 8.5L11.1729 3H4.82719L1.65378 8.5L4.82719 14ZM0.499268 8.5L4.24966 15H11.7504L15.5008 8.5L11.7504 2H4.24966L0.499268 8.5Z"/>
</svg>