<svg width="16" height="16" viewBox="0 0 16 16" fill="currentColor" xmlns="http://www.w3.org/2000/svg">
	<path d="M12.85 4.65L9.35 1.15C9.30601 1.10114 9.25192 1.06242 9.19149 1.03652C9.13106 1.01063 9.06572 0.998164 9 1H4C3.73502 1.00078 3.48112 1.10639 3.29375 1.29375C3.10638 1.48112 3.00078 1.73502 3 2V14C3.00078 14.265 3.10638 14.5189 3.29375 14.7062C3.48112 14.8936 3.73502 14.9992 4 15H12C12.265 14.9992 12.5189 14.8936 12.7062 14.7062C12.8936 14.5189 12.9992 14.265 13 14V5C13.0018 4.93428 12.9894 4.86894 12.9635 4.80851C12.9376 4.74808 12.8989 4.694 12.85 4.65ZM9 2.2L11.8 5H9V2.2ZM12 14H4V2H8V5C8.00078 5.26498 8.10638 5.51888 8.29375 5.70625C8.48112 5.89362 8.73502 5.99922 9 6H12V14Z"/>
</svg>
