<svg width="16" height="16" viewBox="0 0 16 16" fill="currentColor" xmlns="http://www.w3.org/2000/svg">
    <path d="M10 5.00001H12.61C11.9633 4.00617 11.0128 3.24793 9.90009 2.8383C8.78738 2.42867 7.5721 2.3896 6.43538 2.7269C5.29866 3.06421 4.30139 3.75983 3.59221 4.71007C2.88303 5.66032 2.49992 6.8143 2.5 8.00001H1.5C1.49862 6.66275 1.90973 5.35762 2.67726 4.26256C3.4448 3.16751 4.5314 2.33583 5.78891 1.88094C7.04642 1.42605 8.41363 1.37009 9.70411 1.72068C10.9946 2.07127 12.1455 2.81135 13 3.84001V2.00001H14V6.00001H10V5.00001Z"/>
    <path d="M6 11H3.39C4.03667 11.9938 4.9872 12.7521 6.09991 13.1617C7.21261 13.5713 8.4279 13.6104 9.56461 13.2731C10.7013 12.9358 11.6986 12.2402 12.4078 11.2899C13.117 10.3397 13.5001 9.18572 13.5 8.00001H14.5C14.5014 9.33726 14.0903 10.6424 13.3227 11.7375C12.5552 12.8325 11.4686 13.6642 10.2111 14.1191C8.95358 14.574 7.58637 14.6299 6.29589 14.2793C5.00541 13.9288 3.85446 13.1887 3 12.16V14H2V10H6V11Z"/>
</svg>