<svg width="16" height="16" viewBox="0 0 16 16" fill="currentColor" xmlns="http://www.w3.org/2000/svg">
	<path d="M14.625 3.37995C14.3463 3.10027 14.0151 2.87836 13.6504 2.72695C13.2858 2.57553 12.8948 2.49759 12.5 2.49759C12.1051 2.49759 11.7142 2.57553 11.3495 2.72695C10.9849 2.87836 10.6537 3.10027 10.375 3.37995L11.085 4.08995C11.2711 3.90381 11.4921 3.75614 11.7353 3.6554C11.9786 3.55466 12.2392 3.50281 12.5025 3.50281C12.7657 3.50281 13.0264 3.55466 13.2696 3.6554C13.5128 3.75614 13.7338 3.90381 13.92 4.08995C14.1061 4.2761 14.2538 4.49709 14.3545 4.74031C14.4553 4.98352 14.5071 5.2442 14.5071 5.50745C14.5071 5.77071 14.4553 6.03138 14.3545 6.2746C14.2538 6.51782 14.1061 6.73881 13.92 6.92495L9.91998 10.925C9.5447 11.3009 9.03545 11.5124 8.50425 11.5128C7.97306 11.5133 7.46343 11.3027 7.08748 10.9275C6.71154 10.5522 6.50007 10.0429 6.4996 9.51172C6.49914 8.98053 6.7097 8.4709 7.08498 8.09495L7.78998 7.38495L7.08498 6.67495L6.37498 7.38495C6.0953 7.66367 5.87339 7.99484 5.72198 8.3595C5.57056 8.72415 5.49262 9.11511 5.49262 9.50995C5.49262 9.9048 5.57056 10.2958 5.72198 10.6604C5.87339 11.0251 6.0953 11.3562 6.37498 11.635C6.94073 12.1935 7.70502 12.5046 8.49998 12.5C8.89634 12.5016 9.28909 12.4247 9.65555 12.2736C10.022 12.1226 10.3549 11.9004 10.635 11.62L14.635 7.61995C15.1955 7.05613 15.5092 6.29289 15.5073 5.49789C15.5055 4.70288 15.1881 3.94113 14.625 3.37995Z"/>
	<path d="M2.09498 12.41C1.90828 12.2241 1.76013 12.0032 1.65904 11.76C1.55794 11.5167 1.5059 11.2559 1.5059 10.9925C1.5059 10.729 1.55794 10.4682 1.65904 10.2249C1.76013 9.98168 1.90828 9.76079 2.09498 9.57495L6.09498 5.57495C6.28082 5.38825 6.50171 5.2401 6.74497 5.13901C6.98823 5.03791 7.24906 4.98587 7.51248 4.98587C7.77591 4.98587 8.03674 5.03791 8.28 5.13901C8.52326 5.2401 8.74415 5.38825 8.92999 5.57495C9.11551 5.76226 9.26155 5.98489 9.35946 6.22966C9.45737 6.47444 9.50516 6.73637 9.49998 6.99995C9.50151 7.26436 9.45059 7.52644 9.35018 7.77103C9.24977 8.01563 9.10185 8.23789 8.91498 8.42495L7.85498 9.49995L8.56498 10.21L9.62498 9.14995C10.1892 8.58571 10.5062 7.82042 10.5062 7.02245C10.5062 6.22449 10.1892 5.4592 9.62498 4.89495C9.06074 4.33071 8.29545 4.01372 7.49748 4.01372C6.69952 4.01372 5.93423 4.33071 5.36998 4.89495L1.36998 8.89496C1.08955 9.17376 0.867007 9.50525 0.715146 9.87036C0.563286 10.2355 0.485107 10.627 0.485107 11.0225C0.485107 11.4179 0.563286 11.8094 0.715146 12.1745C0.867007 12.5397 1.08955 12.8712 1.36998 13.15C1.9394 13.7042 2.70543 14.0099 3.49998 14C4.30154 14.0007 5.07084 13.6844 5.63998 13.12L4.92998 12.41C4.74415 12.5967 4.52326 12.7448 4.28 12.8459C4.03674 12.947 3.77591 12.999 3.51248 12.999C3.24906 12.999 2.98823 12.947 2.74497 12.8459C2.50171 12.7448 2.28082 12.5967 2.09498 12.41Z"/>
</svg>
