<svg width="32" height="32" viewBox="0 0 32 32" fill="currentColor" xmlns="http://www.w3.org/2000/svg">
    <path d="M30 27.3599H2.00001C1.25001 27.3599 0.640015 26.7499 0.640015 25.9999V3.99994C0.640015 3.24994 1.25001 2.63994 2.00001 2.63994H10.5C10.925 2.63994 11.333 2.84294 11.588 3.18294L13.004 5.40594C13.108 5.54394 13.299 5.63994 13.5 5.63994H30C30.75 5.63994 31.36 6.24994 31.36 6.99994V25.9999C31.36 26.7499 30.75 27.3599 30 27.3599ZM2.00001 3.35994C1.64701 3.35994 1.36001 3.64694 1.36001 3.99994V25.9999C1.36001 26.3529 1.64701 26.6399 2.00001 26.6399H30C30.353 26.6399 30.64 26.3529 30.64 25.9999V6.99994C30.64 6.64694 30.353 6.35994 30 6.35994H13.5C13.074 6.35994 12.667 6.15694 12.412 5.81594L10.996 3.59294C10.892 3.45594 10.7 3.35994 10.5 3.35994H2.00001Z"/>
</svg>