<svg width="32" height="32" viewBox="0 0 32 32" fill="currentColor" xmlns="http://www.w3.org/2000/svg">
    <path d="M11 28.36C10.953 28.36 10.906 28.35 10.861 28.332C5.86701 26.25 2.64001 21.409 2.64001 16C2.64001 8.633 8.63301 2.64 16 2.64C23.367 2.64 29.36 8.633 29.36 16C29.36 21.409 26.132 26.25 21.138 28.332C21.039 28.372 20.932 28.369 20.838 28.321C20.744 28.274 20.675 28.189 20.65 28.087L18.65 20.087C18.615 19.947 18.668 19.799 18.784 19.712C19.964 18.826 20.639 17.474 20.639 16C20.639 13.441 18.558 11.36 15.999 11.36C13.44 11.36 11.359 13.442 11.359 16C11.359 17.473 12.036 18.826 13.215 19.712C13.331 19.799 13.383 19.947 13.348 20.087L11.348 28.087C11.323 28.19 11.254 28.275 11.16 28.321C11.111 28.348 11.056 28.36 11 28.36ZM19.406 20.139L21.246 27.5C25.752 25.446 28.64 20.978 28.64 16C28.64 9.03 22.97 3.36 16 3.36C9.03001 3.36 3.36001 9.03 3.36001 16C3.36001 20.978 6.24801 25.446 10.754 27.5L12.594 20.139C11.349 19.116 10.64 17.621 10.64 16C10.64 13.044 13.044 10.64 16 10.64C18.955 10.64 21.36 13.044 21.36 16C21.36 17.621 20.65 19.116 19.406 20.139Z"/>
</svg>