<svg width="32" height="32" viewBox="0 0 32 32" fill="currentColor" xmlns="http://www.w3.org/2000/svg">
    <path d="M3.00001 31.36H1.00001C0.801015 31.36 0.640015 31.199 0.640015 31V29C0.640015 28.801 0.801015 28.64 1.00001 28.64H1.64001V2C1.64001 1.801 1.80101 1.64 2.00001 1.64H28.64V1C28.64 0.801 28.801 0.64 29 0.64H31C31.199 0.64 31.36 0.801 31.36 1V3C31.36 3.199 31.199 3.36 31 3.36H30.36V30C30.36 30.199 30.199 30.36 30 30.36H3.36001V31C3.36001 31.199 3.19901 31.36 3.00001 31.36ZM1.36001 30.64H2.64001V29.36H1.36001V30.64ZM22.36 29.64H29.639V3.36H29C28.801 3.36 28.64 3.199 28.64 3V2.36H2.36001V9.64H20.64V9C20.64 8.801 20.801 8.64 21 8.64H23C23.199 8.64 23.36 8.801 23.36 9V11C23.36 11.199 23.199 11.36 23 11.36H22.36V29.64ZM14.36 29.64H21.64V11.36H21C20.801 11.36 20.64 11.199 20.64 11V10.36H2.36001V17.64H12.64V17C12.64 16.801 12.801 16.64 13 16.64H15C15.199 16.64 15.36 16.801 15.36 17V19C15.36 19.199 15.199 19.36 15 19.36H14.36C14.36 19.36 14.36 29.64 14.36 29.64ZM3.36001 29.64H13.64V19.36H13C12.801 19.36 12.64 19.199 12.64 19V18.36H2.36001V28.64H3.00001C3.19901 28.64 3.36001 28.801 3.36001 29V29.64ZM13.36 18.64H14.64V17.36H13.36V18.64ZM21.36 10.64H22.639V9.36H21.36V10.64ZM29.36 2.64H30.639V1.36H29.36V2.64Z"/>
</svg>