<svg width="32" height="32" viewBox="0 0 32 32" fill="currentColor" xmlns="http://www.w3.org/2000/svg">
    <path d="M16 31.36C14.699 31.36 13.64 30.301 13.64 29C13.64 27.699 14.699 26.64 16 26.64C17.105 26.64 18.036 27.405 18.291 28.433C22.811 27.603 26.611 24.283 28.03 19.89L28.716 20.111C27.208 24.776 23.161 28.296 18.356 29.153C18.276 30.383 17.25 31.36 16 31.36ZM16 27.36C15.096 27.36 14.36 28.095 14.36 29C14.36 29.905 15.096 30.64 16 30.64C16.904 30.64 17.64 29.905 17.64 29C17.64 28.095 16.904 27.36 16 27.36ZM11.889 28.716C7.225 27.208 3.705 23.161 2.847 18.356C1.617 18.276 0.639999 17.25 0.639999 16C0.639999 14.699 1.699 13.64 3 13.64C4.301 13.64 5.36 14.699 5.36 16C5.36 17.105 4.595 18.036 3.567 18.291C4.398 22.811 7.718 26.611 12.111 28.03L11.889 28.716ZM3 14.36C2.096 14.36 1.36 15.096 1.36 16C1.36 16.904 2.096 17.64 3 17.64C3.904 17.64 4.64 16.904 4.64 16C4.64 15.096 3.904 14.36 3 14.36ZM16 23.36H15.999C15.998 23.36 15.997 23.36 15.996 23.36C15.995 23.36 15.994 23.36 15.994 23.36H15.993C15.935 23.358 15.879 23.342 15.83 23.315L15.829 23.314C15.807 23.301 15.786 23.287 15.766 23.27C15.766 23.269 15.766 23.269 15.766 23.269C15.766 23.269 15.766 23.269 15.765 23.268C15.765 23.268 15.77 23.268 15.763 23.267C15.752 23.256 15.741 23.246 15.731 23.234L8.733 15.236C8.614 15.101 8.614 14.898 8.733 14.762L12.233 10.762C12.301 10.683 12.4 10.639 12.504 10.639H19.504C19.608 10.639 19.706 10.683 19.775 10.762L23.275 14.762C23.394 14.897 23.394 15.1 23.275 15.236L16.277 23.234C16.267 23.246 16.256 23.256 16.245 23.267C16.244 23.267 16.244 23.268 16.243 23.268C16.243 23.269 16.242 23.269 16.242 23.269C16.242 23.269 16.242 23.269 16.242 23.27C16.222 23.287 16.201 23.301 16.179 23.314C16.179 23.314 16.179 23.315 16.178 23.315C16.129 23.342 16.073 23.358 16.015 23.36C16.015 23.36 16.013 23.36 16.012 23.36C16.011 23.36 16.011 23.36 16.01 23.36C16.002 23.36 16 23.36 16 23.36ZM13.52 15.36L16 21.975L18.48 15.36C18.48 15.36 13.52 15.36 13.52 15.36ZM19.249 15.36L17.031 21.275L22.207 15.36H19.249ZM9.793 15.36L14.968 21.275L12.75 15.36H9.793ZM19.18 14.64H22.207L19.337 11.36H16.72L19.18 14.64ZM13.72 14.64H18.28L16 11.6L13.72 14.64ZM9.793 14.64H12.819L15.279 11.36H12.663L9.793 14.64ZM29 18.36C27.698 18.36 26.64 17.301 26.64 16C26.64 14.895 27.405 13.964 28.433 13.709C27.603 9.189 24.283 5.389 19.89 3.97L20.111 3.284C24.776 4.791 28.296 8.838 29.153 13.645C30.383 13.724 31.361 14.75 31.361 16C31.36 17.302 30.302 18.36 29 18.36ZM29 14.36C28.096 14.36 27.36 15.096 27.36 16C27.36 16.904 28.095 17.64 29 17.64C29.905 17.64 30.64 16.905 30.64 16C30.64 15.095 29.904 14.36 29 14.36ZM3.97 12.111L3.284 11.889C4.791 7.225 8.838 3.705 13.645 2.847C13.724 1.617 14.75 0.64 16 0.64C17.302 0.64 18.36 1.699 18.36 3C18.36 4.301 17.302 5.36 16 5.36C14.894 5.36 13.963 4.595 13.709 3.567C9.188 4.398 5.389 7.718 3.97 12.111ZM16 1.36C15.096 1.36 14.36 2.096 14.36 3C14.36 3.904 15.096 4.64 16 4.64C16.904 4.64 17.64 3.904 17.64 3C17.64 2.096 16.904 1.36 16 1.36Z"/>
</svg>
