<svg width="32" height="32" viewBox="0 0 32 32" fill="currentColor" xmlns="http://www.w3.org/2000/svg">
    <!-- <path d="M31.331 17.858L25.331 3.858C25.281 3.741 25.173 3.66 25.048 3.643L10.048 1.643C9.918 1.627 9.79 1.68 9.712 1.784L0.712001 13.784C0.635001 13.887 0.618001 14.023 0.669001 14.141L6.669 28.141C6.719 28.258 6.827 28.339 6.953 28.356L21.953 30.356C21.97 30.359 21.985 30.36 22.001 30.36C22.113 30.36 22.221 30.307 22.289 30.215L31.289 18.215C31.365 18.113 31.382 17.977 31.331 17.858ZM10.162 2.385L23.683 4.188L16.745 7.248C15.701 7.112 12.046 6.644 12.046 6.644C11.914 6.63 11.787 6.683 11.709 6.789L7.416 12.68C7.371 12.742 7.347 12.816 7.347 12.892C7.347 13.077 7.352 13.081 17.788 20.51L17.343 24.294L16.085 24.126L1.511 13.918L10.162 2.385ZM15.472 7.809L10.144 10.159L12.165 7.385C12.727 7.456 14.286 7.656 15.472 7.809ZM17.884 19.695C16.804 18.926 14.114 17.012 11.79 15.357L18.75 12.33L17.884 19.695ZM14.534 23.919L10.482 23.379L9.09 20.106L14.534 23.919ZM1.829 15.02L7.976 19.326L9.899 23.85C9.949 23.967 10.057 24.049 10.183 24.066L17.609 25.057C17.625 25.06 17.641 25.061 17.657 25.061C17.736 25.061 17.814 25.035 17.878 24.985C17.954 24.926 18.004 24.839 18.015 24.743L19.514 11.999L22.456 10.719L23.373 12.876L21.679 29.595L7.25 27.67L1.829 15.02ZM25.233 17.247L23.408 19.675L23.958 14.25L25.233 17.247ZM22.489 28.748L23.268 21.059L25.933 17.512C26.01 17.409 26.027 17.274 25.976 17.156L22.976 10.102C22.939 10.014 22.868 9.944 22.778 9.909C22.69 9.873 22.59 9.874 22.502 9.913L11.105 14.87C9.814 13.951 8.714 13.168 8.212 12.81L9.298 11.319L24.812 4.476L30.586 17.95L22.489 28.748Z"/> -->
    <path d="M21 30.36C19.163 30.36 17.447 29.828 16 28.91C14.553 29.828 12.837 30.36 11 30.36C5.839 30.36 1.64 26.161 1.64 21C1.64 17.354 3.735 14.189 6.785 12.644C6.689 12.11 6.64 11.561 6.64 11C6.64 5.839 10.839 1.64 16 1.64C21.161 1.64 25.36 5.839 25.36 11C25.36 11.561 25.31 12.11 25.215 12.644C28.264 14.189 30.36 17.354 30.36 21C30.36 26.161 26.161 30.36 21 30.36ZM16.646 28.461C17.926 29.21 19.413 29.64 21 29.64C25.764 29.64 29.64 25.764 29.64 21C29.64 17.7 27.782 14.827 25.056 13.372C24.37 15.987 22.579 18.158 20.216 19.355C20.311 19.89 20.36 20.439 20.36 21C20.36 24.042 18.901 26.75 16.646 28.461ZM6.944 13.372C4.219 14.827 2.36 17.7 2.36 21C2.36 25.764 6.236 29.64 11 29.64C12.586 29.64 14.075 29.21 15.354 28.461C13.099 26.75 11.64 24.042 11.64 21C11.64 20.439 11.689 19.89 11.785 19.355C9.42 18.158 7.63 15.987 6.944 13.372ZM12.463 19.666C12.395 20.101 12.36 20.546 12.36 21C12.36 23.902 13.799 26.475 16 28.043C18.201 26.475 19.64 23.902 19.64 21C19.64 20.546 19.605 20.101 19.537 19.666C17.354 20.561 14.646 20.561 12.463 19.666ZM12.607 18.945C14.691 19.841 17.308 19.839 19.394 18.945C18.894 16.903 17.665 15.142 16 13.957C14.335 15.143 13.107 16.903 12.607 18.945ZM16.646 13.539C18.294 14.789 19.517 16.571 20.056 18.628C22.197 17.485 23.803 15.467 24.394 13.054C23.351 12.607 22.204 12.36 21 12.36C19.413 12.36 17.926 12.79 16.646 13.539ZM7.607 13.054C8.197 15.467 9.804 17.485 11.944 18.628C12.483 16.571 13.706 14.789 15.354 13.539C14.075 12.79 12.586 12.36 11 12.36C9.796 12.36 8.649 12.607 7.607 13.054ZM11 11.64C12.837 11.64 14.553 12.172 16 13.09C17.447 12.172 19.163 11.64 21 11.64C22.251 11.64 23.445 11.887 24.537 12.334C24.604 11.899 24.64 11.454 24.64 11C24.64 6.236 20.764 2.36 16 2.36C11.236 2.36 7.36 6.236 7.36 11C7.36 11.454 7.395 11.899 7.463 12.334C8.555 11.887 9.749 11.64 11 11.64Z"/>
</svg>