<svg width="32" height="32" viewBox="0 0 32 32" fill="currentColor" xmlns="http://www.w3.org/2000/svg">
    <path d="M16 31.36C15.801 31.36 15.64 31.199 15.64 31V23C15.64 22.801 15.801 22.64 16 22.64C16.199 22.64 16.36 22.801 16.36 23V31C16.36 31.199 16.199 31.36 16 31.36ZM14.382 27.186C14.335 27.186 14.287 27.176 14.241 27.157C13.242 26.73 12.544 25.624 12.544 24.465C12.544 23.245 13.062 22.314 14.175 21.533C14.339 21.42 14.562 21.459 14.676 21.621C14.79 21.784 14.751 22.009 14.588 22.123C13.66 22.773 13.263 23.475 13.263 24.465C13.263 25.344 13.781 26.179 14.522 26.495C14.705 26.573 14.79 26.784 14.712 26.968C14.655 27.104 14.522 27.186 14.382 27.186ZM17.617 27.186C17.509 27.186 17.401 27.136 17.33 27.043C17.21 26.885 17.241 26.658 17.399 26.538C18.323 25.838 18.734 25.334 18.734 24.203C18.734 22.803 17.355 21.857 15.895 20.857C14.253 19.732 12.556 18.569 12.556 16.585C12.556 15.479 13.205 14.47 14.21 14.015C14.391 13.935 14.605 14.014 14.687 14.195C14.769 14.376 14.688 14.59 14.507 14.672C13.759 15.01 13.276 15.761 13.276 16.586C13.276 18.19 14.746 19.198 16.302 20.265C17.852 21.327 19.455 22.424 19.455 24.204C19.455 25.616 18.886 26.315 17.835 27.113C17.77 27.161 17.693 27.186 17.617 27.186ZM17.617 19.845C17.509 19.845 17.401 19.795 17.33 19.702C17.21 19.543 17.241 19.317 17.399 19.197C18.323 18.498 18.734 17.995 18.734 16.863C18.734 15.613 17.634 14.725 16.359 13.838V18.002C16.359 18.201 16.198 18.362 15.999 18.362C15.8 18.362 15.639 18.201 15.639 18.002V13.343C14.081 12.271 12.555 11.128 12.555 9.246C12.555 8.139 13.204 7.13 14.209 6.676C14.39 6.596 14.604 6.675 14.686 6.856C14.768 7.037 14.687 7.251 14.506 7.333C13.758 7.671 13.275 8.422 13.275 9.247C13.275 10.621 14.353 11.557 15.639 12.467V5.333C14.508 5.159 13.639 4.179 13.639 3C13.639 1.699 14.698 0.64 15.999 0.64C17.301 0.64 18.359 1.699 18.359 3C18.359 4.179 17.49 5.159 16.359 5.333V12.963C17.891 14.012 19.454 15.105 19.454 16.863C19.454 18.276 18.885 18.976 17.834 19.772C17.77 19.82 17.693 19.845 17.617 19.845ZM16 4.639C16.01 4.639 16.02 4.639 16.03 4.64C16.92 4.624 17.64 3.895 17.64 3C17.64 2.096 16.905 1.36 16 1.36C15.095 1.36 14.36 2.096 14.36 3C14.36 3.895 15.08 4.624 15.97 4.64C15.98 4.639 15.99 4.639 16 4.639ZM19 13.36C18.865 13.36 18.735 13.284 18.675 13.153C18.59 12.973 18.667 12.759 18.847 12.674C19.888 12.183 20.735 10.794 20.735 9.576C20.735 7.682 21.794 6.64 23.714 6.64H30C30.199 6.64 30.36 6.801 30.36 7C30.36 7.199 30.199 7.36 30 7.36H23.714C22.536 7.36 21.839 7.771 21.576 8.64H28C28.199 8.64 28.36 8.801 28.36 9C28.36 9.199 28.199 9.36 28 9.36H21.46C21.456 9.43 21.455 9.502 21.455 9.576C21.455 9.91 21.398 10.274 21.291 10.641H25.979C26.178 10.641 26.339 10.802 26.339 11.001C26.339 11.2 26.178 11.361 25.979 11.361H21.016C20.624 12.18 19.986 12.933 19.154 13.325C19.104 13.349 19.052 13.36 19 13.36ZM13 13.36C12.948 13.36 12.896 13.349 12.847 13.326C12.015 12.934 11.377 12.181 10.986 11.362H6.00001C5.80101 11.362 5.64001 11.201 5.64001 11.002C5.64001 10.803 5.80101 10.642 6.00001 10.642H10.71C10.603 10.274 10.547 9.911 10.547 9.577C10.547 9.503 10.545 9.431 10.542 9.361H4.00001C3.80101 9.36 3.64001 9.199 3.64001 9C3.64001 8.801 3.80101 8.64 4.00001 8.64H10.426C10.163 7.771 9.46601 7.36 8.28801 7.36H2.00001C1.80101 7.36 1.64001 7.199 1.64001 7C1.64001 6.801 1.80101 6.64 2.00001 6.64H8.28801C9.97201 6.64 10.992 7.441 11.219 8.913C11.224 8.936 11.228 8.959 11.229 8.984C11.254 9.171 11.267 9.368 11.267 9.576C11.267 10.794 12.113 12.184 13.153 12.674C13.333 12.759 13.41 12.973 13.325 13.153C13.264 13.284 13.135 13.36 13 13.36ZM17.617 12.361C17.504 12.361 17.392 12.308 17.322 12.208C17.208 12.045 17.248 11.821 17.41 11.707C18.339 11.056 18.734 10.355 18.734 9.365C18.734 8.486 18.216 7.652 17.475 7.335C17.292 7.257 17.207 7.045 17.286 6.863C17.364 6.68 17.577 6.595 17.759 6.673C18.757 7.099 19.455 8.206 19.455 9.365C19.455 10.585 18.936 11.516 17.824 12.297C17.761 12.34 17.688 12.361 17.617 12.361Z"/>
</svg>
