<svg width="32" height="32" viewBox="0 0 32 32" fill="currentColor" xmlns="http://www.w3.org/2000/svg">
    <path d="M27 31.36H0.999999C0.800999 31.36 0.639999 31.199 0.639999 31V12C0.639999 11.801 0.800999 11.64 0.999999 11.64H4.64V1C4.64 0.801 4.801 0.64 5 0.64H31C31.199 0.64 31.36 0.801 31.36 1V20C31.36 20.199 31.199 20.36 31 20.36H27.36V31C27.36 31.199 27.199 31.36 27 31.36ZM1.36 30.64H26.64V15.36H1.36V30.64ZM27.36 19.64H30.639V4.36H5.36V11.64H27C27.199 11.64 27.36 11.801 27.36 12V19.64ZM1.36 14.64H26.64V12.36H1.36V14.64ZM5.36 3.64H30.64V1.36H5.36V3.64ZM29 2.5C29 2.776 28.776 3 28.5 3C28.224 3 28 2.776 28 2.5C28 2.224 28.224 2 28.5 2C28.776 2 29 2.224 29 2.5ZM26.5 2C26.224 2 26 2.224 26 2.5C26 2.776 26.224 3 26.5 3C26.776 3 27 2.776 27 2.5C27 2.224 26.776 2 26.5 2ZM24.5 2C24.224 2 24 2.224 24 2.5C24 2.776 24.224 3 24.5 3C24.776 3 25 2.776 25 2.5C25 2.224 24.776 2 24.5 2ZM24.5 13C24.224 13 24 13.224 24 13.5C24 13.776 24.224 14 24.5 14C24.776 14 25 13.776 25 13.5C25 13.224 24.776 13 24.5 13ZM22.5 13C22.224 13 22 13.224 22 13.5C22 13.776 22.224 14 22.5 14C22.776 14 23 13.776 23 13.5C23 13.224 22.776 13 22.5 13ZM20.5 13C20.224 13 20 13.224 20 13.5C20 13.776 20.224 14 20.5 14C20.776 14 21 13.776 21 13.5C21 13.224 20.776 13 20.5 13Z"/>
</svg>